<svg width="208" height="56" viewBox="0 0 208 56" fill="none" xmlns="http://www.w3.org/2000/svg">
<path d="M67.3896 42.7683V13.3515H73.955V36.885H88.8335V42.7683H67.3896Z" fill="#0091D2"/>
<path d="M93.2306 17.7641V12.0908H100.052V17.7641H93.2306ZM93.4012 42.7683V20.2435H99.8812V42.7683H93.4012Z" fill="#0091D2"/>
<path d="M112.916 42.9364L103.921 20.2435H110.785L115.901 35.3301L121.059 20.2435H127.795L118.799 42.9364H112.916Z" fill="#0091D2"/>
<path d="M141.068 43.2726C137.6 43.2726 134.744 42.194 132.499 40.0368C130.253 37.8515 129.131 35.0219 129.131 31.5479C129.131 28.2701 130.197 25.4965 132.328 23.2272C134.46 20.9579 137.16 19.8232 140.428 19.8232C144.038 19.8232 146.795 20.9999 148.699 23.3533C150.603 25.7066 151.555 28.6063 151.555 32.0522C151.555 32.3884 151.527 32.9487 151.47 33.7332H135.568C135.881 35.162 136.52 36.2546 137.487 37.0111C138.453 37.7675 139.675 38.1457 141.153 38.1457C143.171 38.1457 145.018 37.3753 146.695 35.8344L150.404 39.0702C148.102 41.8718 144.99 43.2726 141.068 43.2726ZM135.483 29.7409H145.246C145.047 28.2841 144.521 27.1214 143.668 26.2529C142.844 25.3844 141.764 24.9502 140.428 24.9502C139.121 24.9502 138.027 25.3844 137.146 26.2529C136.293 27.0934 135.739 28.2561 135.483 29.7409Z" fill="#0091D2"/>
<path d="M156.385 42.7683V20.2435H162.865V24.7821C164.343 21.3361 166.773 19.6832 170.155 19.8232V26.5051H169.814C167.597 26.5051 165.877 27.1774 164.655 28.5222C163.461 29.839 162.865 31.8141 162.865 34.4476V42.7683H156.385Z" fill="#0091D2"/>
<path d="M174.331 17.7641V12.0908H181.152V17.7641H174.331ZM174.502 42.7683V20.2435H180.982V42.7683H174.502Z" fill="#0091D2"/>
<path d="M187.068 42.7683V20.2435H193.548V23.4373C195.452 21.0279 197.683 19.8232 200.241 19.8232C202.685 19.8232 204.59 20.5657 205.954 22.0505C207.318 23.5354 208 25.5805 208 28.186V42.7683H201.52V30.2032C201.52 28.7183 201.179 27.5837 200.497 26.7992C199.815 26.0148 198.849 25.6226 197.598 25.6226C196.348 25.6226 195.353 26.0148 194.614 26.7992C193.903 27.5837 193.548 28.7183 193.548 30.2032V42.7683H187.068Z" fill="#0091D2"/>
<g clip-path="url(#clip0_14_1903)">
<path d="M51.347 5.09109C36.8941 -1.29816 20.5345 0.390485 10.0181 10.7192C-0.104515 20.6601 -2.07355 35.9146 3.59233 49.6987C2.61315 50.6435 1.71127 51.5196 0.922435 52.2946L3.28216 54.6121C4.071 53.8369 4.96296 52.9516 5.9251 51.9896C19.9604 57.5544 35.4932 55.6202 45.6154 45.6794C56.1326 35.3507 57.8528 19.2844 51.347 5.09109Z" fill="#177B63"/>
<path d="M1.94523 55.9258C1.82795 56.0404 1.85951 56.0099 1.94523 55.9258V55.9258Z" fill="#17617B"/>
<path d="M2.35979 55.5176C2.26981 55.606 2.19931 55.6747 2.13672 55.7365C2.25188 55.624 2.35979 55.5176 2.35979 55.5176Z" fill="#17617B"/>
<path d="M2.06827 55.8037C2.02451 55.8467 1.98308 55.8874 1.94922 55.9211C1.97862 55.8921 2.02005 55.8515 2.06827 55.8037Z" fill="#17617B"/>
<path d="M10.018 9.38424C-0.500026 19.713 -2.21948 35.7794 4.28713 49.9725L51.3468 3.75613C36.894 -2.63312 20.5345 -0.944475 10.018 9.38424Z" fill="#0091D2"/>
<path d="M45.6152 44.3442C35.098 54.6729 18.7385 56.3623 4.28711 49.9723L51.3468 3.75586C57.8527 17.949 56.1325 34.0154 45.6152 44.3442Z" fill="#0091D2"/>
<path d="M2.35972 54.1824C2.71255 53.965 2.71255 53.965 3.28187 53.2767C14.6091 42.1517 45.4885 9.97117 46.5119 8.50391C45.017 9.50819 12.2493 39.835 0.922261 50.9592C0.269963 51.5997 0 51.8641 0 51.8641L2.35972 54.1824Z" fill="#17617B"/>
<path d="M29.739 25.8514C29.739 25.8514 29.739 25.8514 29.739 24.833C29.739 20.2521 28.8446 7.38142 28.6226 6.87305C28.3988 7.38142 27.5052 20.2521 27.5052 24.833C27.5044 25.8514 27.5044 25.8514 27.5044 25.8514H29.739Z" fill="#17617B"/>
<path d="M17.8725 37.5046C17.8725 37.5046 17.8725 37.5046 17.8725 36.4863C17.8725 31.9053 16.9782 19.0347 16.7551 18.5264C16.5313 19.0346 15.6377 31.9061 15.6377 36.4863C15.6377 37.5046 15.6377 37.5046 15.6377 37.5046H17.8725Z" fill="#17617B"/>
<path d="M29.0469 25.1709C29.0469 25.1709 29.0469 25.1709 30.0837 25.1709C34.7482 25.1709 47.8537 26.0484 48.3714 26.2683C47.8537 26.488 34.7482 27.3656 30.0837 27.3656C29.0469 27.3656 29.0469 27.3656 29.0469 27.3656V25.1709Z" fill="#17617B"/>
<path d="M17.1807 36.8252C17.1807 36.8252 17.1807 36.8252 18.2176 36.8252C22.8813 36.8252 35.9876 37.7036 36.5053 37.9226C35.9876 38.1424 22.8813 39.0199 18.2176 39.0199C17.1807 39.0207 17.1807 39.0207 17.1807 39.0207V36.8252Z" fill="#17617B"/>
</g>
<defs>
<clipPath id="clip0_14_1903">
<rect width="57.0218" height="56" fill="white"/>
</clipPath>
</defs>
</svg>
