<svg width="208" height="56" viewBox="0 0 208 56" fill="none" xmlns="http://www.w3.org/2000/svg">
<path d="M67.3896 42.7684V13.3516H73.955V36.8851H88.8335V42.7684H67.3896Z" fill="#0091D2"/>
<path d="M93.2306 17.7642V12.0909H100.052V17.7642H93.2306ZM93.4012 42.7684V20.2436H99.8812V42.7684H93.4012Z" fill="#0091D2"/>
<path d="M112.916 42.9365L103.921 20.2436H110.785L115.901 35.3302L121.059 20.2436H127.795L118.799 42.9365H112.916Z" fill="#0091D2"/>
<path d="M141.068 43.2727C137.6 43.2727 134.744 42.1941 132.499 40.0369C130.253 37.8516 129.131 35.022 129.131 31.548C129.131 28.2702 130.197 25.4966 132.328 23.2273C134.46 20.958 137.16 19.8233 140.428 19.8233C144.038 19.8233 146.795 21 148.699 23.3533C150.603 25.7067 151.555 28.6063 151.555 32.0523C151.555 32.3885 151.527 32.9488 151.47 33.7333H135.568C135.881 35.1621 136.52 36.2547 137.487 37.0112C138.453 37.7676 139.675 38.1458 141.153 38.1458C143.171 38.1458 145.018 37.3754 146.695 35.8345L150.404 39.0703C148.102 41.8719 144.99 43.2727 141.068 43.2727ZM135.483 29.741H145.246C145.047 28.2842 144.521 27.1215 143.668 26.253C142.844 25.3845 141.764 24.9503 140.428 24.9503C139.121 24.9503 138.027 25.3845 137.146 26.253C136.293 27.0935 135.739 28.2561 135.483 29.741Z" fill="#0091D2"/>
<path d="M156.385 42.7684V20.2436H162.865V24.7822C164.343 21.3362 166.773 19.6833 170.155 19.8233V26.5051H169.814C167.597 26.5051 165.877 27.1775 164.655 28.5223C163.461 29.8391 162.865 31.8142 162.865 34.4477V42.7684H156.385Z" fill="#0091D2"/>
<path d="M174.331 17.7642V12.0909H181.152V17.7642H174.331ZM174.502 42.7684V20.2436H180.982V42.7684H174.502Z" fill="#0091D2"/>
<path d="M187.068 42.7684V20.2436H193.548V23.4374C195.452 21.028 197.683 19.8233 200.241 19.8233C202.685 19.8233 204.59 20.5658 205.954 22.0506C207.318 23.5354 208 25.5806 208 28.1861V42.7684H201.52V30.2033C201.52 28.7184 201.179 27.5838 200.497 26.7993C199.815 26.0149 198.849 25.6226 197.598 25.6226C196.348 25.6226 195.353 26.0149 194.614 26.7993C193.903 27.5838 193.548 28.7184 193.548 30.2033V42.7684H187.068Z" fill="#0091D2"/>
<g clip-path="url(#clip0_5_150)">
<path d="M51.347 5.09119C36.8941 -1.29806 20.5345 0.390576 10.0181 10.7193C-0.104515 20.6602 -2.07355 35.9147 3.59233 49.6988C2.61315 50.6436 1.71127 51.5197 0.922435 52.2947L3.28216 54.6121C4.071 53.837 4.96296 52.9517 5.9251 51.9897C19.9604 57.5544 35.4932 55.6203 45.6154 45.6795C56.1326 35.3508 57.8528 19.2845 51.347 5.09119Z" fill="#177B63"/>
<path d="M1.94523 55.9254C1.82795 56.04 1.85951 56.0095 1.94523 55.9254V55.9254Z" fill="#17617B"/>
<path d="M2.35979 55.5179C2.26981 55.6063 2.19931 55.6751 2.13672 55.7369C2.25188 55.6243 2.35979 55.5179 2.35979 55.5179Z" fill="#17617B"/>
<path d="M2.06827 55.8041C2.02451 55.8471 1.98308 55.8878 1.94922 55.9215C1.97862 55.8925 2.02005 55.8519 2.06827 55.8041Z" fill="#17617B"/>
<path d="M10.018 9.38428C-0.500026 19.713 -2.21948 35.7794 4.28713 49.9726L51.3468 3.75616C36.894 -2.63309 20.5345 -0.944445 10.018 9.38428Z" fill="#0091D2"/>
<path d="M45.6152 44.3445C35.098 54.6732 18.7385 56.3626 4.28711 49.9726L51.3468 3.75616C57.8527 17.9493 56.1325 34.0157 45.6152 44.3445Z" fill="#0091D2"/>
<path d="M2.35972 54.1829C2.71255 53.9654 2.71255 53.9654 3.28187 53.2771C14.6091 42.1522 45.4885 9.97163 46.5119 8.50436C45.017 9.50865 12.2493 39.8355 0.922261 50.9597C0.269963 51.6002 0 51.8646 0 51.8646L2.35972 54.1829Z" fill="#17617B"/>
<path d="M29.739 25.8511C29.739 25.8511 29.739 25.8511 29.739 24.8327C29.739 20.2519 28.8446 7.38118 28.6226 6.8728C28.3988 7.38118 27.5052 20.2519 27.5052 24.8327C27.5044 25.8511 27.5044 25.8511 27.5044 25.8511H29.739Z" fill="#17617B"/>
<path d="M17.8725 37.5048C17.8725 37.5048 17.8725 37.5048 17.8725 36.4865C17.8725 31.9056 16.9782 19.035 16.7551 18.5266C16.5313 19.0349 15.6377 31.9063 15.6377 36.4865C15.6377 37.5048 15.6377 37.5048 15.6377 37.5048H17.8725Z" fill="#17617B"/>
<path d="M29.0469 25.1715C29.0469 25.1715 29.0469 25.1715 30.0837 25.1715C34.7482 25.1715 47.8537 26.049 48.3714 26.2688C47.8537 26.4886 34.7482 27.3662 30.0837 27.3662C29.0469 27.3662 29.0469 27.3662 29.0469 27.3662V25.1715Z" fill="#17617B"/>
<path d="M17.1807 36.825C17.1807 36.825 17.1807 36.825 18.2176 36.825C22.8813 36.825 35.9876 37.7034 36.5053 37.9224C35.9876 38.1422 22.8813 39.0198 18.2176 39.0198C17.1807 39.0205 17.1807 39.0205 17.1807 39.0205V36.825Z" fill="#17617B"/>
</g>
<defs>
<clipPath id="clip0_5_150">
<rect width="57.0218" height="56" fill="white"/>
</clipPath>
</defs>
</svg>
