<svg width="120" height="120" viewBox="0 0 120 120" fill="none" xmlns="http://www.w3.org/2000/svg">
<g clip-path="url(#clip0_12_669)">
<path d="M25.7143 0C17.1429 0 17.1429 4.00334 17.1429 8.57143V25.7143C17.1429 34.2857 0 34.2857 0 51.4286V111.429C0 116.282 4.00335 120 8.57143 120H42.8571C47.9962 120 51.4286 116.568 51.4286 111.429V51.4286C51.4286 34.2857 34.2857 34.2857 34.2857 25.7143V8.57143C34.2857 3.71784 34.2857 0 25.7143 0ZM60 42.8571C60 68.5714 64.0377 85.7143 85.7143 85.7143V102.857C85.7143 108.574 77.1429 111.429 72.8571 111.429C64.2857 111.429 60 111.429 60 120H120C120 111.429 115.714 111.429 107.143 111.429C102.857 111.429 94.2857 108.288 94.2857 102.857V85.7143C115.466 85.7143 120 68.5714 120 42.8571H60Z" fill="#0091D2"/>
</g>
<defs>
<clipPath id="clip0_12_669">
<rect width="120" height="120" fill="white"/>
</clipPath>
</defs>
</svg>
