<svg width="120" height="120" viewBox="0 0 120 120" fill="none" xmlns="http://www.w3.org/2000/svg">
<g clip-path="url(#clip0_12_674)">
<path d="M54.3447 0.983154H10.0733C8.51777 0.983154 7.25684 2.24409 7.25684 3.79964V5.838H57.1611V3.79964C57.1611 2.24409 55.9002 0.983154 54.3447 0.983154Z" fill="#0091D2"/>
<path d="M5.71436 31.3911L12.3139 114.916H25.568C24.713 112.948 24.2361 110.78 24.2361 108.502V105.929C20.8653 103.91 18.6029 100.222 18.6029 96.0149C18.6029 91.7588 20.9187 88.0358 24.3547 86.0324C25.654 71.8032 37.6512 60.6193 52.2134 60.6193H56.394L58.7033 31.3911H5.71436Z" fill="#0091D2"/>
<path d="M62.674 11.4712H1.74422L0 25.7578H64.4184L62.674 11.4712Z" fill="#0091D2"/>
<path d="M92.0225 66.2524H52.2136C41.3047 66.2524 32.2027 74.1124 30.2588 84.4655H113.978C112.033 74.1127 102.931 66.2524 92.0225 66.2524Z" fill="#0091D2"/>
<path d="M114.084 107.564H30.1525C30.0576 107.564 29.9641 107.559 29.8696 107.557V108.502C29.8696 114.3 34.5864 119.017 40.3842 119.017H103.852C109.65 119.017 114.367 114.3 114.367 108.502V107.557C114.273 107.559 114.179 107.564 114.084 107.564Z" fill="#0091D2"/>
<path d="M114.084 90.0986H30.1527C26.8904 90.0986 24.2368 92.7527 24.2368 96.015C24.2368 99.2772 26.8906 101.931 30.1527 101.931H114.084C117.347 101.931 120 99.277 120 96.015C120 92.7527 117.346 90.0986 114.084 90.0986Z" fill="#0091D2"/>
</g>
<defs>
<clipPath id="clip0_12_674">
<rect width="120" height="120" fill="white"/>
</clipPath>
</defs>
</svg>
