<svg width="120" height="120" viewBox="0 0 120 120" fill="none" xmlns="http://www.w3.org/2000/svg">
<path d="M83.9905 5.48578C83.9905 2.45719 81.5334 0 78.5048 0H41.4955C38.467 0 36.0098 2.45719 36.0098 5.48578V17.2594H83.9908L83.9905 5.48578Z" fill="#0091D2"/>
<path d="M86.9971 38.0749C82.1301 35.6395 80.5042 29.9559 80.5042 25.0853C80.5042 24.7703 80.5042 24.3053 80.5042 23.7084C80.5042 23.4885 80.5042 23.2834 80.5042 23.0198H39.4959C39.4959 23.2834 39.4959 23.4885 39.4959 23.7084C39.4959 23.7817 39.4959 24.1699 39.4959 25.0853C39.4959 29.9559 37.8698 35.6395 33.003 38.0749C27.1874 40.979 24.7485 45.3074 24.7485 55.6457C24.7485 59.3334 24.7485 93.794 24.7485 99.7009C24.7485 109.666 31.7615 120 45.791 120H74.2089C88.2384 120 95.2514 109.665 95.2514 99.7009C95.2514 93.794 95.2514 59.3336 95.2514 55.6457C95.2514 45.3077 92.8124 40.979 86.9971 38.0749ZM83.7084 95.3247H36.2915V56.6125H83.7086V95.3247H83.7084Z" fill="#0091D2"/>
<path d="M55.9425 90.6849H64.054V81.0535H73.6816V72.9493H64.054V63.3179H55.9425V72.9493H46.3184V81.0535H55.9425V90.6849Z" fill="#0091D2"/>
</svg>
