<svg width="120" height="120" viewBox="0 0 120 120" fill="none" xmlns="http://www.w3.org/2000/svg">
<path d="M35.0001 60V65H60.0001H85.0001V60C85.0001 51.727 91.6976 45.0184 99.9661 45C99.9236 43.3599 99.8286 42.1689 99.6156 41.0982C98.0376 33.1644 91.8356 26.9624 83.9021 25.3843C81.9701 25 79.6466 25 75.0001 25H60.0001H45.0001C40.3536 25 38.0303 25 36.0983 25.3843C28.1645 26.9624 21.9626 33.1644 20.3844 41.0982C20.1714 42.1689 20.0765 43.3599 20.0342 45C28.3028 45.0184 35.0001 51.727 35.0001 60Z" fill="#0091D2"/>
<path d="M92.222 90H27.7778C26.3924 90 25.0441 89.8415 23.75 89.542V95C23.75 97.071 22.071 98.75 20 98.75C17.9289 98.75 16.25 97.071 16.25 95V85.7565C12.4254 82.4955 10 77.642 10 72.222V60C10 54.477 14.4771 50 20 50C25.5228 50 30 54.477 30 60V66C30 68.209 31.7908 70 34 70H86C88.209 70 90 68.209 90 66V60C90 54.477 94.477 50 100 50C105.523 50 110 54.477 110 60V72.222C110 77.642 107.574 82.4955 103.75 85.7565V95C103.75 97.071 102.071 98.75 100 98.75C97.929 98.75 96.25 97.071 96.25 95V89.542C94.956 89.8415 93.6075 90 92.222 90Z" fill="#0091D2"/>
</svg>
