<svg width="120" height="120" viewBox="0 0 120 120" fill="none" xmlns="http://www.w3.org/2000/svg">
<path d="M67.5149 16L83.858 22.2762L80.7198 30.4479L76.6318 28.8764L73.3667 37.3895C76.7761 39.4116 79.6869 42.1775 81.8795 45.469L90.2087 41.7617L88.4274 37.7615L96.4237 34.203L103.545 50.1959L95.5483 53.7541L93.7669 49.7584L85.4422 53.4653C85.9762 55.553 86.2608 57.7459 86.2608 59.9999C86.2608 61.7771 86.0857 63.5146 85.7485 65.1952L94.2571 68.4604L95.8241 64.3767L104 67.5149L97.7237 83.858L89.552 80.7198L91.1189 76.6361L82.6104 73.3667C80.5883 76.7761 77.8223 79.6869 74.5309 81.8795L78.2381 90.2087L82.2384 88.4274L85.7969 96.4237L69.8039 103.545L66.2457 95.5483L70.2418 93.7669L66.5345 85.4422C64.4468 85.9762 62.2539 86.2608 59.9999 86.2608C58.2186 86.2608 56.481 86.0857 54.8004 85.7443L51.5352 94.2571L55.6232 95.8241L52.485 104L36.1419 97.7237L39.2801 89.552L43.3593 91.1189L46.6332 82.6104C43.2238 80.5883 40.313 77.8223 38.1159 74.5309L29.7869 78.2381L31.5683 82.2384L23.5719 85.7969L16.4508 69.8039L24.4473 66.2457L26.2242 70.246L34.5531 66.5345C34.0236 64.4468 33.7391 62.2539 33.7391 59.9999C33.7391 58.2231 33.9142 56.4853 34.2513 54.8046L25.7382 51.5397L24.1758 55.6232L16 52.485L22.2762 36.1464L30.4479 39.2846L28.8764 43.368L37.3895 46.6374C39.4116 43.2238 42.1775 40.313 45.469 38.1159L41.7617 29.7869L37.7615 31.5683L34.203 23.5719L50.1959 16.4552L53.7541 24.4516L49.7584 26.2329L53.4653 34.5577C55.553 34.0236 57.7459 33.7391 59.9999 33.7391C61.7771 33.7391 63.5146 33.9142 65.1952 34.2513L68.4559 25.7382L64.3767 24.1758L67.5149 16ZM51.8328 65.3921C50.6247 67.4843 51.3426 70.1629 53.4348 71.3709C55.5267 72.5789 58.2056 71.8611 59.4136 69.7689C60.6213 67.6769 59.9038 64.9984 57.8116 63.7904C55.7193 62.5823 53.0408 63.3002 51.8328 65.3921ZM68.7535 55.6232C66.3377 55.6232 64.3767 57.5839 64.3767 59.9999C64.3767 62.416 66.3377 64.3767 68.7535 64.3767C71.1695 64.3767 73.1302 62.416 73.1302 59.9999C73.1302 57.5839 71.1695 55.6232 68.7535 55.6232ZM53.4348 48.629C51.3426 49.837 50.6247 52.5155 51.8328 54.6078C53.0408 56.7 55.7193 57.4176 57.8116 56.2095C59.9038 55.0018 60.6213 52.3229 59.4136 50.231C58.2056 48.1388 55.5267 47.4209 53.4348 48.629Z" fill="#0091D2"/>
</svg>
