<svg width="120" height="120" viewBox="0 0 120 120" fill="none" xmlns="http://www.w3.org/2000/svg">
<path d="M44.3301 13.9429C40.8338 14.6299 38.2432 16.0038 36.0512 18.3721C34.0222 20.5595 33.0621 23.1628 33.2614 25.9107L33.37 27.375L32.0476 27.8812C28.986 29.0563 25.544 31.1352 22.9172 33.395C18.6057 37.101 16.5405 41.6025 15.7796 48.9242C15.5441 51.2743 15.6528 57.204 15.9789 59.536L16.1963 61.0004L15.2724 61.9224C14.0948 63.0974 13.7325 64.2364 13.7506 66.7492C13.7506 70.871 15.6709 74.7217 18.4607 76.186C19.7651 76.8911 20.7071 77.1442 22.1564 77.1984L23.2977 77.2346L23.7324 78.7712C25.073 83.6342 27.4281 87.8464 31.1056 92.0225L32.5911 93.7038L31.9027 99.0368C31.5222 101.965 31.2143 104.587 31.1961 104.858C31.1961 105.491 31.9208 106.25 32.5548 106.25C32.8085 106.25 33.207 106.069 33.4244 105.852C33.7867 105.491 33.8954 104.912 34.4389 100.736C34.765 98.151 35.0548 95.9997 35.091 95.9816C35.1273 95.9454 35.7432 96.3612 36.486 96.9036C38.4425 98.386 39.8193 99.1634 41.2504 99.6153C42.4279 99.9769 42.8808 100.013 47.138 100.013C51.3953 100.013 51.8482 99.9769 53.0257 99.6153C54.4568 99.1634 55.8336 98.386 57.7901 96.9036C58.5329 96.3612 59.1488 95.9454 59.185 95.9816C59.2032 95.9997 59.493 98.1148 59.8191 100.646C60.1633 103.376 60.5075 105.418 60.6524 105.653C60.9785 106.16 61.7031 106.358 62.2828 106.087C63.1705 105.69 63.1705 105.455 62.3915 99.3622L61.6669 93.6857L62.8807 92.3298C64.5836 90.4316 65.9966 88.5876 67.0835 86.7979L68.0074 85.2613L68.6415 86.1832C69.5654 87.5753 71.6849 89.7266 73.2248 90.8655C75.761 92.7637 79.4747 94.3726 81.8841 94.6077C82.8262 94.7161 83.0073 94.68 83.3515 94.3365C83.8225 93.8665 83.8588 92.8541 83.424 92.4744C83.2428 92.3117 82.2465 91.9863 81.1957 91.7152C74.6016 90.0881 69.1669 84.3754 67.9712 77.8492C67.5908 75.7702 67.6995 75.8425 64.1669 74.9748C62.9169 74.6494 61.8843 74.3782 61.8481 74.3601C61.83 74.324 62.9894 73.9986 64.4386 73.6189C66.5582 73.0585 67.156 72.8416 67.4459 72.48C67.627 72.2269 67.7901 71.9015 67.7901 71.7207C67.7901 71.558 67.9531 70.7987 68.1343 70.0394C69.8009 63.5675 74.7646 58.596 81.1595 56.9689C89.5834 54.8357 98.2789 58.9937 101.938 66.8938C105.96 75.5894 102.301 86.0205 93.6956 90.3412C92.2464 91.0643 90.3623 91.7152 89.221 91.8959C88.279 92.0406 87.3551 92.7637 87.3551 93.3784C87.3551 93.5772 87.5182 93.9388 87.7355 94.2099C88.2066 94.8065 88.8225 94.8246 90.8333 94.3184C99.8369 92.0225 106.232 83.7788 106.25 74.4324C106.268 68.7378 104.185 63.7302 100.127 59.6987C93.9492 53.5341 84.6196 51.9432 76.703 55.7215C75.7791 56.1554 74.6559 56.7701 74.203 57.0955C73.7501 57.4028 73.3516 57.6198 73.3335 57.5836C73.2973 57.5655 73.1704 56.752 73.0617 55.8119C71.9205 45.9593 64.9821 39.9574 52.8445 38.3665C50.0003 37.9869 44.0402 37.9326 41.5222 38.258C35.9606 38.9812 31.5947 40.5359 28.2976 42.9945C23.352 46.6644 20.8883 52.0517 21.0875 58.8491C21.1238 59.9699 21.0875 60.8738 21.0332 60.8738C20.9788 60.8738 20.4716 60.7834 19.91 60.675C19.131 60.5123 18.8774 60.3857 18.8049 60.0784C18.5332 58.9575 18.2977 54.2934 18.3883 51.5636C18.5513 46.5198 19.439 42.6691 21.1238 39.632C21.9933 38.0773 25.2361 34.769 27.1563 33.5035C32.6635 29.8879 38.9135 28.0439 46.341 27.845C53.0257 27.6642 58.8408 28.8212 64.0763 31.3883C67.0473 32.8527 68.8045 34.082 70.9603 36.1248C74.3661 39.415 75.761 42.7957 76.232 49.0145C76.3407 50.3704 76.4313 50.7139 76.7755 51.0574C77.319 51.5997 78.0255 51.5816 78.6052 51.0031C79.0581 50.5512 79.0581 50.497 78.9494 48.888C78.6595 44.9831 77.8262 41.476 76.6124 39.0896C74.4023 34.6786 69.3842 30.5206 63.3154 28.0439L61.3589 27.2484L61.4133 25.9468C61.6669 20.5776 57.6996 15.8773 51.5583 14.2322C49.7105 13.726 46.1417 13.5994 44.3301 13.9429ZM50.8518 16.8354C53.6416 17.5766 56.3771 19.4748 57.5909 21.4815C58.4966 23.0001 59.0945 25.9287 58.551 26.2541C58.4604 26.3084 57.609 26.1999 56.6851 26.0011C50.8337 24.7356 43.8591 24.7537 38.062 26.0553C36.6852 26.3626 36.1418 26.4349 36.0331 26.2722C35.9425 26.1637 35.9244 25.4768 35.9787 24.7356C36.2323 20.9211 39.6381 17.7213 44.6018 16.6727C46.0692 16.3473 49.3482 16.4377 50.8518 16.8354ZM52.301 41.0059C59.3119 41.8014 64.5654 44.4046 67.5364 48.5264C69.3661 51.0574 70.2719 53.9318 70.4531 57.7282L70.5618 60.0965L69.5835 61.2715C67.7357 63.5313 66.1777 66.6046 65.5256 69.3163C65.1633 70.8168 65.5799 70.5637 61.9024 71.4676C59.4206 72.0642 58.8408 72.3896 58.4423 73.4562C58.1887 74.1251 58.1706 74.3782 58.3336 74.9386C58.6959 76.1318 59.3119 76.5295 61.7213 77.1622C62.9169 77.4696 64.2031 77.795 64.5654 77.8854C65.1089 78.03 65.2538 78.1565 65.3444 78.6446C65.3988 78.952 65.6705 79.892 65.9241 80.7236L66.3951 82.2241L65.9604 83.1642C65.272 84.6285 63.8589 86.8702 62.627 88.443C61.1959 90.287 57.5909 93.7399 55.7249 95.0777C52.8083 97.1567 51.9206 97.3917 47.0294 97.3917C42.1743 97.3917 41.3229 97.1386 38.1707 94.7704C31.7759 89.9797 27.5186 83.5258 25.9063 76.2041C25.6346 74.9386 25.5259 73.6008 25.4534 70.7264C25.381 67.3458 25.3266 66.7854 24.9281 65.5741C23.5694 61.3619 23.4064 56.4085 24.5114 52.7748C26.6853 45.7243 33.2251 41.6025 43.5149 40.8071C45.6707 40.6444 49.8735 40.7347 52.301 41.0059ZM20.3991 63.6036C21.0694 63.8025 21.6491 64.0737 21.6854 64.1821C21.7216 64.3087 21.939 65.086 22.1926 65.9357C22.6093 67.2916 22.6636 67.8701 22.718 70.9795L22.7723 74.4686L21.7759 74.3963C18.6238 74.1613 16.5405 71.1241 16.5042 66.695C16.4861 64.7425 16.7941 63.8748 17.6455 63.4952C18.4607 63.1336 19.0042 63.1697 20.3991 63.6036Z" fill="#0091D2"/>
<path d="M31.812 53.082C30.87 53.317 29.5838 54.004 28.9316 54.6367C28.1707 55.3418 28.0802 56.101 28.7142 56.6795C29.2758 57.2038 30.0367 57.1857 30.7794 56.6072C31.7396 55.8841 32.5367 55.631 33.8953 55.631C35.0366 55.631 35.1816 55.5949 35.5258 55.161C36.0149 54.5282 35.9968 54.1305 35.4714 53.5159C35.0729 53.0639 34.9098 53.0097 33.7142 52.9735C32.9714 52.9554 32.12 53.0097 31.812 53.082Z" fill="#0091D2"/>
<path d="M59.185 53.1364C58.3154 53.6425 58.1524 54.4018 58.7502 55.1611C59.0944 55.595 59.2393 55.6311 60.3806 55.6311C61.7393 55.6311 62.5364 55.8842 63.4965 56.6074C64.3117 57.222 65.1088 57.222 65.598 56.6074C65.9784 56.1193 66.069 55.7035 65.8697 55.1973C65.6704 54.6911 64.0038 53.6064 62.8806 53.2629C61.6668 52.8833 59.7466 52.811 59.185 53.1364Z" fill="#0091D2"/>
<path d="M32.4643 64.3632C31.7759 64.7067 31.4317 65.4298 31.7034 66.0083C31.9752 66.623 32.5367 66.9484 33.9135 67.3099C35.3809 67.6715 36.8664 67.5449 38.1889 66.9484C39.2396 66.4602 39.5476 65.9179 39.2396 65.0502C38.9497 64.2366 38.2976 64.0739 37.0838 64.4897C35.7614 64.9417 35.2541 64.9417 33.9679 64.4897C33.3882 64.2909 32.9353 64.1282 32.9172 64.1282C32.9172 64.1282 32.7179 64.2366 32.4643 64.3632Z" fill="#0091D2"/>
<path d="M55.7431 64.309C55.1271 64.5441 54.9097 64.9599 54.9641 65.7011C55.0184 66.3338 55.0909 66.4242 55.9786 66.8761C57.2829 67.527 58.8771 67.6897 60.3807 67.31C61.7575 66.9485 62.3191 66.623 62.5546 66.0084C62.772 65.4118 62.4278 64.6706 61.7937 64.3633C61.3952 64.1644 61.1597 64.2006 60.3082 64.4898C59.022 64.9418 58.5148 64.9418 57.1923 64.4898C56.6126 64.291 56.1235 64.1283 56.1235 64.1463C56.1054 64.1463 55.9423 64.2187 55.7431 64.309Z" fill="#0091D2"/>
<path d="M46.3048 67.5811C46.015 67.9065 45.9606 68.3042 45.9063 70.582C45.8701 72.0283 45.8882 73.4745 45.9606 73.818C46.178 75.0654 47.3556 75.5716 48.1889 74.7942C48.5693 74.4327 48.5874 74.2881 48.5874 71.0882C48.5874 67.8522 48.5693 67.7618 48.1889 67.4907C47.6092 67.0749 46.7215 67.1291 46.3048 67.5811Z" fill="#0091D2"/>
<path d="M42.2287 82.2241C41.5403 82.4772 41.1961 83.363 41.5403 83.9957C41.8845 84.5923 42.3736 84.8273 44.0946 85.1708C47.0837 85.7855 52.0112 85.2793 52.8989 84.285C53.4061 83.6884 53.4061 83.2545 52.8808 82.658C52.3917 82.0795 52.0112 82.0433 50.1815 82.441C48.062 82.9111 44.8374 82.7664 42.9715 82.1518C42.8265 82.0975 42.4823 82.1337 42.2287 82.2241Z" fill="#0091D2"/>
<path d="M82.7718 58.7952C75.5799 60.1691 70.2538 66.1891 69.8372 73.4746C69.4024 80.9951 74.3299 87.6479 81.8298 89.6726C83.8407 90.215 87.3551 90.1969 89.4385 89.6365C97.1196 87.5756 102.21 80.2901 101.304 72.6611C100.688 67.545 97.9348 63.2966 93.5326 60.6934C90.5073 58.9036 86.2139 58.1443 82.7718 58.7952ZM88.895 61.6696C90.3986 62.0673 92.6993 63.2424 93.8587 64.1824C95.7246 65.7372 97.2826 67.9789 98.0253 70.2025C98.4782 71.5403 98.8224 74.2339 98.6594 75.0836C98.5507 75.6259 98.4782 75.7163 98.1522 75.6259C97.9529 75.5717 96.558 75.3547 95.0544 75.1378C93.5689 74.939 92.0834 74.722 91.7754 74.6859C91.2863 74.6135 91.1776 74.5051 91.087 73.9989C90.924 73.1492 89.5834 70.6002 88.1885 68.5212C86.5399 66.0445 86.1595 65.7191 85.1631 65.9903C84.3298 66.2072 81.2501 70.9256 80.3624 73.3119C79.8371 74.722 79.9277 74.6678 77.8444 74.8847C76.7936 74.9932 74.0582 75.409 72.9712 75.6259L72.4458 75.7344L72.5545 73.8723C72.6814 71.6487 73.0074 70.2748 73.8589 68.5574C75.761 64.7429 79.4748 62.0492 83.8226 61.3442C84.8008 61.1996 87.7899 61.3803 88.895 61.6696ZM87.9167 73.4204C88.2972 74.2158 88.6232 75.1017 88.6232 75.3728C88.6232 77.1626 86.6124 78.7173 84.9095 78.2473C83.4965 77.8676 82.645 76.7648 82.645 75.3547C82.645 74.5774 83.5689 72.6069 84.8914 70.564L85.5798 69.4974L86.395 70.7448C86.8479 71.4318 87.5363 72.643 87.9167 73.4204ZM80.6342 78.1388C81.9566 80.6155 85.3262 81.7363 87.9167 80.5432C89.0218 80.0189 90.1269 79.0065 90.6341 77.9942C90.9602 77.3795 91.0508 77.3253 91.5761 77.3976C91.9022 77.4518 92.6087 77.5422 93.1522 77.5964C94.2935 77.723 97.4819 78.2111 97.8261 78.3196C98.1522 78.428 97.5362 79.9466 96.5942 81.4109C94.837 84.0865 91.8297 86.2016 88.4421 87.1056C87.1921 87.449 83.8588 87.3948 82.4639 87.0152C80.7972 86.5813 78.569 85.4424 77.2465 84.3577C75.5255 82.9295 73.4966 80.0189 73.3516 78.7534C73.3154 78.3738 73.4241 78.3196 74.5835 78.1026C75.6886 77.8857 79.1487 77.3976 79.9277 77.3433C80.0726 77.3433 80.3987 77.6868 80.6342 78.1388Z" fill="#0091D2"/>
</svg>
