<svg width="120" height="120" viewBox="0 0 120 120" fill="none" xmlns="http://www.w3.org/2000/svg">
<path d="M51.0978 19.1112C47.932 19.5095 44.6112 20.1955 41.8217 20.9921C37.8147 22.1648 22.5833 27.4311 21.6535 27.9621C20.4138 28.6923 18.9748 30.3076 18.2885 31.7902L17.6907 33.0514L17.6243 43.1193C17.58 49.4698 17.6464 54.205 17.8014 55.9531C18.7312 66.198 22.0742 75.58 27.7195 83.8334C31.8372 89.8299 37.394 95.3838 43.2165 99.2782C45.4967 100.827 53.1788 105.297 54.4407 105.85C55.8576 106.447 58.6027 106.536 60.2189 106.027C61.6136 105.562 68.7643 101.513 72.0851 99.2782C75.2731 97.154 78.1732 94.6979 81.2283 91.5558C89.9509 82.55 95.2642 71.6856 97.2345 58.7633C97.5444 56.6612 97.6108 54.4927 97.6108 44.6682V33.0514L97.0131 31.7902C96.3268 30.3076 94.8878 28.6923 93.6038 27.94C92.2533 27.1434 74.8967 21.3018 71.266 20.4389C69.5613 20.0185 67.1261 19.5095 65.842 19.3104C62.6098 18.8236 54.33 18.6908 51.0978 19.1112ZM62.9862 22.541C67.7902 23.0278 70.6682 23.7801 81.0512 27.2319C86.9843 29.2013 91.4563 30.7944 92.0319 31.1706C92.7404 31.6131 93.1831 32.1221 93.6259 33.0071L94.2236 34.2242L94.113 45.3763C94.0244 57.325 93.9358 58.2986 92.6961 63.587C91.2792 69.5835 88.4455 76.1331 85.0361 81.2224C82.6673 84.7849 80.9184 86.9312 78.0182 89.8078C73.989 93.8571 70.8011 96.1583 63.5618 100.34C59.7982 102.487 59.2448 102.73 58.0936 102.819C57.363 102.863 56.4774 102.796 56.0789 102.664C55.1713 102.354 48.1533 98.2825 45.5853 96.6008C32.7671 88.1482 24.1109 74.4957 21.6535 58.8075C21.3436 56.971 21.255 54.2714 21.1886 45.3763L21.0779 34.2242L21.6535 33.0735C22.0299 32.3212 22.5612 31.6574 23.1368 31.2812C24.1773 30.5289 40.914 24.8422 44.8547 23.8686C47.2899 23.2712 50.8985 22.6516 52.891 22.4746C54.972 22.2976 60.883 22.3418 62.9862 22.541Z" fill="#0091D2"/>
<path d="M54.3299 27.763C48.6403 28.2719 46.1608 28.8694 36.1099 32.1885C28.6713 34.6667 27.0331 35.2863 26.7453 35.7067C26.4353 36.1714 26.4132 37.4326 26.5017 46.372C26.6124 57.502 26.701 58.4535 28.1843 64.0074C31.0844 74.8055 37.9474 84.6964 47.1349 91.2461C49.7915 93.1269 57.0529 97.3311 57.6728 97.3311C58.182 97.3311 64.3586 93.835 67.0817 91.9984C77.1326 85.2275 84.3055 74.9604 87.427 62.8126C88.5782 58.4092 88.6889 57.0152 88.7996 46.3278C88.9103 36.6582 88.8881 36.105 88.4897 35.6403C88.2019 35.2863 85.8994 34.4233 79.7892 32.3655C71.0002 29.4226 68.5207 28.7366 64.6686 28.1834C62.2776 27.8515 56.2338 27.586 54.3299 27.763ZM61.5249 31.414C66.1076 31.7902 69.1627 32.5646 77.4647 35.3527L85.2132 37.9637V46.7924C85.2132 54.2272 85.1467 55.9974 84.8147 57.9667C82.468 71.929 74.6309 83.4573 62.6318 90.6044C58.669 92.972 57.8499 93.3924 57.4293 93.2818C56.6766 93.0826 50.2121 89.1218 48.2639 87.6615C40.0727 81.5101 33.9403 72.3273 31.4386 62.4143C30.1989 57.5684 30.1103 56.5284 30.0882 46.9031V37.9637L36.1763 35.9058C43.8805 33.2948 46.1165 32.631 49.0166 32.0557C53.223 31.237 57.1636 31.0378 61.5249 31.414Z" fill="#0091D2"/>
<path d="M50.8098 40.5968C50.3891 41.15 50.3449 41.4819 50.3449 45.1329V49.0937H46.2714H42.1757L41.733 49.669C41.2902 50.2443 41.2681 50.5319 41.2681 56.3293V62.4143L41.9101 63.056L42.5521 63.6976H46.4485H50.3449V67.5478C50.3449 71.3094 50.367 71.4422 50.8762 72.0396L51.4075 72.6592H57.6506H63.8937L64.425 72.0396C64.9342 71.4422 64.9563 71.3094 64.9563 67.5478V63.6976H68.8527H72.7491L73.3911 63.056L74.0331 62.4143V56.3293C74.0331 50.5319 74.011 50.2443 73.5682 49.669L73.1254 49.0937H69.0298H64.9563V45.1329C64.9563 41.4819 64.912 41.15 64.4914 40.5968L64.0486 40.0215H57.6506H51.2525L50.8098 40.5968ZM61.4141 47.412C61.4141 51.1736 61.4363 51.3064 61.9455 51.9038L62.4768 52.5234L66.4839 52.5898L70.4909 52.6562V56.4178V60.1573H66.506C61.1042 60.1573 61.4141 59.8475 61.4141 65.2466V69.2295H57.6506H53.887V65.2466C53.887 59.8475 54.197 60.1573 48.7952 60.1573H44.8102V56.4178V52.6562L48.8173 52.5898L52.8244 52.5234L53.3557 51.9038C53.8649 51.3064 53.887 51.1736 53.887 47.412V43.5619H57.6506H61.4141V47.412Z" fill="#0091D2"/>
</svg>
