<svg width="120" height="120" viewBox="0 0 120 120" fill="none" xmlns="http://www.w3.org/2000/svg">
<path d="M69.2374 14.0463C68.2785 14.6451 68.1518 15.5525 68.7489 17.9297C69.6535 21.5773 72.6386 26.4225 76.0761 29.7978C78.0662 31.7758 79.6401 32.4291 82.3177 32.4291C84.1088 32.4291 87.1482 33.1913 89.265 34.1712C93.0281 35.9133 96.4293 39.2886 98.6546 43.4987C101.984 49.832 103.268 58.6695 102.11 67.4526C100.247 81.6798 93.2271 92.1868 81.6121 98.0845C75.8951 101.006 70.7571 102.222 63.3756 102.422C57.731 102.567 53.3708 102.004 49.065 100.553C44.1259 98.883 41.4484 96.9413 37.9024 92.4953C35.4781 89.4829 34.5192 88.7389 32.5291 88.3034C30.7018 87.9041 28.2232 88.7389 26.6674 90.2632C24.822 92.0961 23.8812 95.054 23.7365 99.5L23.6279 102.422L24.1526 103.002C24.7496 103.656 25.6723 103.819 26.4322 103.402C27.2101 102.984 27.3548 102.512 27.4996 99.8448C27.6624 96.8324 27.8795 95.7073 28.6032 94.1648C29.164 92.949 29.743 92.459 30.9551 92.1324C32.1854 91.7876 32.7643 92.1868 35.2248 95.2173C37.2149 97.6853 37.9747 98.4656 39.5125 99.7359C43.0766 102.676 48.6308 104.871 54.981 105.833C57.6767 106.232 63.2309 106.378 66.1979 106.124C74.0136 105.434 80.0924 103.565 85.918 100.063C97.1711 93.3119 103.956 82.3512 105.928 67.6341C106.307 64.8576 106.362 57.6533 106.036 55.1671C104.824 46.0756 101.839 39.5245 96.7188 34.6793C94.8553 32.9191 93.4985 31.9754 91.0742 30.814C88.2337 29.4349 85.5923 28.7634 82.1187 28.5275C80.0382 28.3823 79.5678 28.1101 77.7586 26.0232C74.7734 22.5572 72.8557 19.1093 72.2587 16.115C72.0416 15.0081 71.8788 14.627 71.4446 14.2278C70.8113 13.6652 69.9791 13.5926 69.2374 14.0463Z" fill="#0091D2"/>
<path d="M58.0748 16.7682C57.1521 17.2219 56.8807 18.0204 57.1521 19.5266C58.2015 25.2973 60.2458 30.4691 62.8691 33.9715C63.3033 34.5703 64.2803 35.6773 65.0221 36.4395C65.7638 37.1835 66.3789 37.9094 66.3789 38.0364C66.3789 38.1634 65.9086 39.2159 65.3115 40.3773C64.7326 41.5569 64.027 43.1901 63.7556 44.043C62.8872 46.6743 61.3675 50.7936 60.7886 52.0821C58.6357 56.8729 53.5519 62.9339 49.3727 65.7467C48.7213 66.1822 46.297 67.4343 43.9813 68.5232C39.6754 70.5556 37.8301 71.6807 34.6278 74.1668C32.0045 76.2174 31.6427 76.3626 26.9931 76.9615C23.7908 77.397 21.3846 78.5221 19.2679 80.6271C15.7038 84.1658 14.0213 89.2106 13.7861 97.0501C13.6414 101.478 13.8765 102.204 15.5229 102.422C16.1742 102.512 16.3189 102.458 16.8617 101.913L17.4768 101.296L17.6035 97.6671C17.6577 95.6709 17.8025 93.457 17.8929 92.7311C18.5442 87.7226 20.462 84.0206 23.3928 82.1152C24.7859 81.2078 25.7809 80.9356 28.748 80.5908C32.5292 80.1553 34.0489 79.502 37.215 77.0159C40.0554 74.7657 41.4665 73.8946 44.8678 72.3522C47.7987 71.0093 50.042 69.8842 51.0914 69.2127C55.6505 66.3455 61.5303 59.5223 63.9546 54.2597C64.9678 52.1002 65.3658 51.0477 66.777 46.9465C67.374 45.2044 68.2605 43.0268 68.7309 42.1376C70.2144 39.3611 70.6305 37.6372 70.1601 36.258C70.0335 35.9313 69.5269 35.3325 68.9299 34.8607C65.2573 31.8846 62.4349 26.4587 61.1323 19.8351C60.6981 17.6574 60.5534 17.2945 60.0106 16.9497C59.3231 16.5142 58.7261 16.4597 58.0748 16.7682Z" fill="#0091D2"/>
<path d="M91.1106 56.8183C89.9708 57.2356 89.2471 57.9434 87.7093 60.1029C83.7834 65.6377 78.591 69.267 71.1191 71.735C66.7409 73.1868 62.3084 73.9126 54.1128 74.5296C48.5587 74.947 47.238 75.1648 45.1212 75.9451C43.3663 76.5802 42.3713 77.1791 41.0867 78.4131C39.1328 80.2459 38.1921 82.2421 38.0292 84.8734C37.6131 91.4607 43.4206 96.6144 53.6244 98.6468C64.6423 100.861 76.42 97.7032 85.8459 90.0271C88.0892 88.2124 91.5267 84.6011 93.0283 82.4961C95.1089 79.5745 96.8819 75.5821 97.5874 72.1705C98.5825 67.4886 97.7322 61.9357 95.5431 58.5967C94.4756 56.9634 92.6665 56.2376 91.1106 56.8183ZM92.576 61.1554C93.5891 62.7704 94.3852 66.8172 94.15 69.1581C93.6253 74.7837 90.8935 79.9374 85.9001 84.8008C82.6436 87.9583 79.8756 89.9 75.8773 91.8599C71.5172 94.0012 67.8445 95.0175 63.014 95.4167C55.5964 96.0337 47.2199 93.6927 43.7824 90.0452C42.3713 88.5572 41.8647 87.3232 41.8647 85.4178C41.8647 84.093 41.9371 83.7482 42.3713 82.9135C43.0768 81.5706 44.1262 80.5907 45.6459 79.8648C47.4551 78.9938 48.7577 78.776 54.4385 78.3405C59.6308 77.9594 61.4038 77.7598 64.1176 77.3242C74.1224 75.691 82.0647 71.9528 87.5646 66.2546C88.9215 64.8392 89.609 63.9863 91.6533 61.1372C91.8885 60.8287 92.1237 60.5565 92.1599 60.5565C92.1961 60.5565 92.377 60.8287 92.576 61.1554Z" fill="#0091D2"/>
</svg>
