<svg width="120" height="120" viewBox="0 0 120 120" fill="none" xmlns="http://www.w3.org/2000/svg">
<path d="M57.0333 13.8409C55.3309 13.9677 52.1617 14.4747 50.3325 14.9093C42.2011 16.8289 35.0657 20.8128 29.1436 26.7525C25.4492 30.4286 22.4429 34.6298 20.5413 38.7586C20.1429 39.6097 19.7626 40.316 19.7082 40.3341C19.6539 40.3341 19.3823 39.7727 19.0925 39.0665C18.5492 37.7264 18.1327 37.2194 17.3177 36.9115C16.1405 36.4588 14.8728 36.7848 14.1303 37.7264C13.8406 38.0886 13.75 38.4689 13.75 39.2838C13.75 40.2436 13.9492 40.8411 15.561 44.644C17.4988 49.2436 17.8791 49.8412 19.1287 50.1129C20.0523 50.3302 20.0523 50.3302 25.0689 48.2295C29.5783 46.3281 30.2665 45.8754 30.52 44.5897C30.7011 43.6299 30.1759 42.4347 29.361 41.8734C28.4917 41.2758 27.4594 41.2939 26.0649 41.8734C25.4673 42.1269 24.9421 42.3261 24.8696 42.3261C24.6885 42.3261 26.9523 38.1429 27.9846 36.6037C33.3452 28.5091 41.5491 22.7323 51.0751 20.3058C54.3349 19.4909 56.3089 19.2554 60.3837 19.2554C64.5671 19.2373 66.5955 19.4909 70.1813 20.4144C80.993 23.2032 90.2111 30.6459 95.2095 40.6238C96.3142 42.8512 97.3103 45.3321 97.7993 47.1792C98.4512 49.5515 99.1575 50.2939 100.806 50.2939C102.327 50.2939 103.395 49.2436 103.395 47.7406C103.395 45.5313 100.697 38.813 98.1434 34.7023C90.8088 22.8772 78.349 15.1991 64.3679 13.8952C62.5026 13.7323 58.9168 13.696 57.0333 13.8409Z" fill="#0091D2"/>
<path d="M64.241 30.2472C63.245 30.8266 40.4443 58.4788 40.1907 59.3842C39.8285 60.6881 40.5711 62.1006 41.875 62.5895C42.201 62.7163 44.338 62.7887 47.5435 62.7887H52.6868V75.3743C52.6868 87.6521 52.7049 87.9962 53.049 88.6843C53.7009 89.9519 55.3671 90.4771 56.6167 89.807C57.5041 89.3362 80.5221 61.4667 80.7575 60.5613C81.1197 59.2756 80.3772 57.8631 79.0733 57.3742C78.7473 57.2474 76.6103 57.175 73.4048 57.175H68.2615V44.5893C68.2615 32.3116 68.2434 31.9675 67.8993 31.2794C67.2111 29.9393 65.5269 29.4685 64.241 30.2472ZM63.2269 61.2494C63.3899 61.5573 63.8426 61.9738 64.241 62.2092C64.9111 62.5895 65.1647 62.6076 68.6237 62.6076C70.6339 62.6076 72.2457 62.68 72.2095 62.7525C72.1914 62.843 69.0221 66.7002 65.1828 71.336L58.2104 79.7566L58.1198 69.5071C58.0111 57.9899 58.0655 58.4245 56.671 57.7182C56.0371 57.3923 55.6025 57.356 52.3245 57.356C50.3143 57.356 48.7025 57.2836 48.7387 57.2112C48.775 57.1206 51.9261 53.2635 55.7655 48.6276L62.7379 40.207L62.8284 50.4566C62.9009 59.5291 62.9552 60.7605 63.2269 61.2494Z" fill="#0091D2"/>
<path d="M99.4112 69.4891C99.1576 69.5616 97.0931 70.4127 94.7931 71.3724C90.2836 73.2739 89.5955 73.7447 89.3419 75.0123C89.1789 75.8996 89.686 77.1491 90.3923 77.6562C91.2978 78.3081 92.4206 78.3081 93.96 77.6562C95.4994 77.0043 95.4994 76.9681 94.3041 79.3584C89.1608 89.5899 79.9246 96.9964 68.7688 99.8395C57.2145 102.755 44.4649 99.9662 35.1201 92.433C28.8902 87.4168 24.0185 80.1552 22.0626 72.966C21.5918 71.2638 21.2658 70.6662 20.5233 70.1954C19.7808 69.7426 18.3682 69.7426 17.6619 70.1954C16.3761 71.0465 16.1768 72.2417 16.9194 74.7588C18.9839 81.6945 22.9138 88.268 28.0571 93.3927C34.9752 100.292 43.6319 104.602 53.3208 105.978C55.8743 106.341 63.1727 106.341 65.7081 105.978C80.3049 103.842 92.9639 94.5879 99.3387 81.3685L100.299 79.3946L100.588 80.119C101.367 82.0566 101.947 82.6723 103.16 82.8353C104.736 83.0526 106.076 82.0385 106.239 80.4812C106.311 79.8293 106.076 79.123 104.41 75.2115C102.417 70.467 102.001 69.797 100.878 69.4891C100.136 69.2899 100.027 69.2899 99.4112 69.4891Z" fill="#0091D2"/>
</svg>
