<svg width="24" height="24" viewBox="0 0 24 24" fill="none" xmlns="http://www.w3.org/2000/svg">
<g clip-path="url(#clip0_14_1582)">
<path d="M8.60004 16.3995C7.72682 17.2045 6.57612 17.6405 5.38876 17.6163C4.2014 17.5922 3.0694 17.1097 2.22963 16.27C1.38987 15.4302 0.907432 14.2982 0.883277 13.1108C0.859122 11.9235 1.29512 10.7728 2.10004 9.89955L9.90004 2.09955C10.7733 1.29463 11.924 0.858634 13.1113 0.882789C14.2987 0.906944 15.4307 1.38938 16.2704 2.22915C17.1102 3.06891 17.5926 4.20092 17.6168 5.38828C17.641 6.57564 17.205 7.72633 16.4 8.59955M5.99904 5.99855L10.249 10.2485" stroke="#17617B" stroke-width="1.5" stroke-linecap="round" stroke-linejoin="round"/>
<path d="M17.25 15V19.5M15 17.25H19.5M23.25 15.75C23.2534 17.4965 22.6605 19.1918 21.5695 20.5556C20.4785 21.9194 18.9546 22.8699 17.25 23.25C15.5454 22.8699 14.0215 21.9194 12.9305 20.5556C11.8395 19.1918 11.2466 17.4965 11.25 15.75V13.5C11.25 13.1022 11.408 12.7206 11.6894 12.4393C11.9707 12.158 12.3522 12 12.75 12H21.75C22.1478 12 22.5294 12.158 22.8107 12.4393C23.092 12.7206 23.25 13.1022 23.25 13.5V15.75Z" stroke="#17617B" stroke-width="1.5" stroke-linecap="round" stroke-linejoin="round"/>
</g>
<defs>
<clipPath id="clip0_14_1582">
<rect width="24" height="24" fill="white"/>
</clipPath>
</defs>
</svg>
