<svg width="96" height="96" viewBox="0 0 96 96" fill="none" xmlns="http://www.w3.org/2000/svg">
<path d="M45.6266 11.0724C44.2648 11.1738 41.7293 11.5795 40.266 11.9272C33.7609 13.4628 28.0525 16.65 23.3149 21.4017C20.3593 24.3426 17.9543 27.7036 16.433 31.0066C16.1143 31.6875 15.8101 32.2525 15.7666 32.267C15.7231 32.267 15.5058 31.8179 15.274 31.2529C14.8394 30.1809 14.5061 29.7752 13.8542 29.5289C12.9124 29.1668 11.8983 29.4275 11.3043 30.1809C11.0724 30.4706 11 30.7748 11 31.4267C11 32.1946 11.1594 32.6726 12.4488 35.7149C13.999 39.3946 14.3033 39.8727 15.303 40.09C16.0419 40.2638 16.0419 40.2638 20.0551 38.5833C23.6626 37.0622 24.2132 36.7 24.416 35.6714C24.5609 34.9036 24.1407 33.9475 23.4888 33.4984C22.7933 33.0203 21.9675 33.0348 20.8519 33.4984C20.3738 33.7012 19.9537 33.8606 19.8957 33.8606C19.7508 33.8606 21.5618 30.5141 22.3877 29.2827C26.6762 22.8069 33.2393 18.1856 40.86 16.2443C43.4679 15.5924 45.0471 15.4041 48.3069 15.4041C51.6537 15.3896 53.2764 15.5924 56.145 16.3312C64.7944 18.5622 72.1689 24.5164 76.1676 32.4988C77.0514 34.2807 77.8482 36.2654 78.2394 37.7431C78.761 39.6409 79.326 40.2349 80.6445 40.2349C81.8615 40.2349 82.7163 39.3946 82.7163 38.1922C82.7163 36.4248 80.5575 31.0501 78.5147 27.7615C72.647 18.3015 62.6792 12.159 51.4943 11.1159C50.0021 10.9855 47.1334 10.9565 45.6266 11.0724Z" fill="#177B63"/>
<path d="M51.3931 24.1976C50.5963 24.6612 32.3557 46.7829 32.1529 47.5073C31.8631 48.5504 32.4571 49.6803 33.5003 50.0715C33.7611 50.1729 35.4707 50.2309 38.0351 50.2309H42.1497V60.2994C42.1497 70.1216 42.1642 70.3968 42.4395 70.9473C42.961 71.9614 44.2939 72.3815 45.2936 71.8455C46.0035 71.4689 64.418 49.1733 64.6063 48.4489C64.8961 47.4204 64.302 46.2904 63.2589 45.8992C62.9981 45.7978 61.2885 45.7399 58.7241 45.7399H54.6095V35.6714C54.6095 25.8492 54.595 25.5739 54.3197 25.0234C53.7692 23.9514 52.4218 23.5747 51.3931 24.1976ZM50.5818 48.9995C50.7122 49.2457 51.0744 49.5789 51.3931 49.7673C51.9292 50.0715 52.132 50.086 54.8993 50.086C56.5074 50.086 57.7969 50.1439 57.7679 50.2019C57.7534 50.2743 55.218 53.3601 52.1465 57.0687L46.5686 63.8052L46.4961 55.6056C46.4092 46.3918 46.4527 46.7395 45.3371 46.1745C44.83 45.9137 44.4823 45.8847 41.8599 45.8847C40.2517 45.8847 38.9623 45.8268 38.9913 45.7688C39.0203 45.6964 41.5412 42.6107 44.6127 38.902L50.1906 32.1655L50.2631 40.3652C50.321 47.6232 50.3645 48.6083 50.5818 48.9995Z" fill="#177B63"/>
<path d="M79.5288 55.5913C79.326 55.6492 77.6743 56.3301 75.8344 57.0979C72.2268 58.6191 71.6763 58.9958 71.4734 60.0098C71.343 60.7197 71.7487 61.7193 72.3137 62.125C73.0382 62.6465 73.9364 62.6465 75.1679 62.125C76.3994 61.6034 76.3994 61.5744 75.4432 63.4867C71.3285 71.6719 63.9396 77.5971 55.0149 79.8716C45.7715 82.204 35.5718 79.973 28.096 73.9464C23.112 69.9335 19.2147 64.1242 17.65 58.3728C17.2733 57.011 17.0125 56.533 16.4185 56.1563C15.8245 55.7941 14.6944 55.7941 14.1294 56.1563C13.1007 56.8372 12.9414 57.7933 13.5354 59.807C15.187 65.3556 18.331 70.6144 22.4456 74.7142C27.9801 80.2338 34.9054 83.6817 42.6565 84.7827C44.6994 85.0724 50.5381 85.0724 52.5664 84.7827C64.2439 83.0732 74.3711 75.6703 79.4709 65.0948L80.2387 63.5157L80.4706 64.0952C81.0936 65.6453 81.5572 66.1379 82.5279 66.2682C83.7883 66.4421 84.8605 65.6308 84.9909 64.3849C85.0488 63.8634 84.8605 63.2984 83.5276 60.1692C81.9339 56.3736 81.6006 55.8376 80.7024 55.5913C80.1084 55.4319 80.0214 55.4319 79.5288 55.5913Z" fill="#177B63"/>
</svg>
