<svg width="96" height="96" viewBox="0 0 96 96" fill="none" xmlns="http://www.w3.org/2000/svg">
<path d="M40.8779 15.2894C38.3453 15.608 35.6887 16.1568 33.4571 16.794C30.2514 17.7322 18.0664 21.9453 17.3225 22.3701C16.3307 22.9543 15.1795 24.2465 14.6305 25.4325L14.1523 26.4415L14.0992 34.4958C14.0637 39.5762 14.1169 43.3644 14.2408 44.7629C14.9847 52.9588 17.659 60.4644 22.1753 67.0671C25.4695 71.8643 29.9149 76.3075 34.5729 79.423C36.3971 80.6621 42.5427 84.2379 43.5523 84.6804C44.6858 85.1584 46.8819 85.2292 48.1748 84.822C49.2906 84.4503 55.0112 81.2109 57.6678 79.423C60.2181 77.7236 62.5383 75.7587 64.9824 73.2451C71.9604 66.0404 76.211 57.3488 77.7873 47.011C78.0352 45.3293 78.0884 43.5946 78.0884 35.735V26.4415L77.6102 25.4325C77.0611 24.2465 75.9099 22.9543 74.8827 22.3524C73.8024 21.7151 59.9171 17.0419 57.0125 16.3515C55.6488 16.0152 53.7006 15.608 52.6733 15.4487C50.0876 15.0593 43.4637 14.9531 40.8779 15.2894ZM50.3886 18.0332C54.2319 18.4226 56.5343 19.0245 64.8407 21.7859C69.5872 23.3614 73.1648 24.6359 73.6252 24.9369C74.192 25.2909 74.5462 25.698 74.9004 26.4061L75.3786 27.3797L75.2901 36.3014C75.2192 45.8604 75.1484 46.6393 74.1566 50.87C73.0231 55.6672 70.7561 60.9069 68.0286 64.9783C66.1336 67.8283 64.7344 69.5454 62.4143 71.8466C59.1909 75.086 56.6406 76.927 50.8491 80.2727C47.8383 81.9897 47.3955 82.1845 46.4745 82.2553C45.8901 82.2907 45.1817 82.2376 44.8629 82.1314C44.1367 81.8835 38.5224 78.6264 36.4679 77.2811C26.2134 70.519 19.2884 59.597 17.3225 47.0464C17.0746 45.5772 17.0037 43.4175 16.9506 36.3014L16.862 27.3797L17.3225 26.4592C17.6236 25.8574 18.0487 25.3263 18.5091 25.0254C19.3416 24.4235 32.7309 19.8742 35.8835 19.0953C37.8317 18.6173 40.7185 18.1217 42.3125 17.9801C43.9773 17.8384 48.7061 17.8738 50.3886 18.0332Z" fill="#177B63"/>
<path d="M43.4637 22.2108C38.912 22.6179 36.9284 23.0959 28.8877 25.7512C22.9369 27.7338 21.6263 28.2294 21.396 28.5657C21.1481 28.9375 21.1304 29.9465 21.2012 37.098C21.2898 46.002 21.3606 46.7632 22.5472 51.2063C24.8673 59.8448 30.3577 67.7575 37.7077 72.9972C39.833 74.5019 45.6421 77.8652 46.1381 77.8652C46.5454 77.8652 51.4867 75.0684 53.6652 73.5991C61.7059 68.1824 67.4442 59.9687 69.9414 50.2504C70.8624 46.7278 70.9509 45.6126 71.0395 37.0626C71.128 29.3269 71.1103 28.8844 70.7915 28.5126C70.5613 28.2294 68.7194 27.539 63.8312 25.8928C56.8 23.5384 54.8164 22.9897 51.7347 22.5471C49.8219 22.2816 44.9868 22.0692 43.4637 22.2108ZM49.2197 25.1316C52.8859 25.4325 55.33 26.0521 61.9715 28.2825L68.1703 30.3713V37.4343C68.1703 43.3821 68.1172 44.7983 67.8515 46.3737C65.9742 57.5436 59.7045 66.7662 50.1053 72.4839C46.935 74.378 46.2797 74.7143 45.9432 74.6258C45.3411 74.4665 40.1695 71.2979 38.6109 70.1296C32.0579 65.2085 27.152 57.8622 25.1507 49.9318C24.1589 46.0551 24.0881 45.2231 24.0704 37.5229V30.3713L28.9408 28.7251C35.1042 26.6362 36.893 26.1052 39.2131 25.645C42.5782 24.99 45.7307 24.8307 49.2197 25.1316Z" fill="#177B63"/>
<path d="M40.6475 32.478C40.311 32.9206 40.2756 33.1861 40.2756 36.1069V39.2755H37.0168H33.7403L33.3861 39.7358C33.0319 40.196 33.0142 40.4261 33.0142 45.064V49.932L33.5278 50.4454L34.0414 50.9587H37.1585H40.2756V54.0388C40.2756 57.0481 40.2933 57.1543 40.7007 57.6323L41.1257 58.1279H46.1202H51.1146L51.5397 57.6323C51.947 57.1543 51.9648 57.0481 51.9648 54.0388V50.9587H55.0819H58.199L58.7126 50.4454L59.2262 49.932V45.064C59.2262 40.4261 59.2085 40.196 58.8543 39.7358L58.5 39.2755H55.2235H51.9648V36.1069C51.9648 33.1861 51.9293 32.9206 51.5928 32.478L51.2386 32.0178H46.1202H41.0017L40.6475 32.478ZM49.131 37.9302C49.131 40.9395 49.1487 41.0457 49.5561 41.5236L49.9811 42.0193L53.1868 42.0724L56.3925 42.1255V45.1348V48.1264H53.2045C48.8831 48.1264 49.131 47.8786 49.131 52.1978V55.3842H46.1202H43.1093V52.1978C43.1093 47.8786 43.3573 48.1264 39.0358 48.1264H35.8479V45.1348V42.1255L39.0536 42.0724L42.2592 42.0193L42.6843 41.5236C43.0916 41.0457 43.1093 40.9395 43.1093 37.9302V34.8501H46.1202H49.131V37.9302Z" fill="#177B63"/>
</svg>
