<svg width="96" height="96" viewBox="0 0 96 96" fill="none" xmlns="http://www.w3.org/2000/svg">
<path d="M64.4146 5.23627C57.5793 6.37867 51.8885 11.8219 49.9968 19.029C49.5835 20.5578 49.5518 20.9274 49.5518 23.8002C49.5518 26.3034 49.6153 27.1434 49.8538 28.1682C50.2194 29.6466 50.7599 31.2258 51.3003 32.3682C51.6818 33.1746 51.6977 33.2922 51.6977 36.7362V40.2642H55.02H58.3582L59.4391 40.8354C61.6328 41.9946 63.8582 42.5826 66.5605 42.7338C74.8106 43.1538 82.2976 37.341 84.5708 28.7226C84.9682 27.1938 85 26.841 85 23.8842C85 20.9106 84.9682 20.5746 84.5549 19.029C82.0751 9.60426 73.4912 3.72428 64.4146 5.23627ZM70.9638 7.99147C76.2412 9.45306 80.247 13.3843 81.9956 18.7938C82.8699 21.4986 82.9335 25.6314 82.1546 28.3866C80.2629 35.1066 74.747 39.777 68.2296 40.2138C65.4796 40.3818 62.3958 39.693 59.9637 38.3154L58.9463 37.7442H56.5142H54.0821V35.1402V32.5362L53.4463 31.1922C52.413 29.0082 51.9998 27.261 51.9044 24.6738C51.809 22.2042 51.9839 20.5578 52.5561 18.7938C54.416 13.0315 58.9304 8.88187 64.5417 7.75627C66.2108 7.42027 69.3424 7.53787 70.9638 7.99147Z" fill="#177B63"/>
<path d="M62.6185 13.8378C62.5549 13.8882 62.5072 15.0306 62.5072 16.3409V18.7433L60.1705 18.7937L57.8179 18.8441V23.8841V28.9241L60.1546 28.9745L62.4913 29.0249L62.539 31.4945L62.5867 33.9641L67.3237 34.0145L72.0448 34.0481V31.5281V29.0081H74.4293H76.8137V23.8841V18.7601H74.4293H72.0448V16.2401V13.7202H67.3873C64.8121 13.7202 62.6662 13.7706 62.6185 13.8378ZM69.6922 18.8777L69.7399 21.3641L72.0925 21.4145L74.4293 21.4649V23.8841V26.3033L72.0925 26.3537L69.7399 26.4041L69.6922 28.8737L69.6445 31.3601H67.276H64.8916V28.8401V26.3201H62.5072H60.1228V23.8841V21.4481H62.5072H64.8916V18.9281V16.4081H67.276H69.6445L69.6922 18.8777Z" fill="#177B63"/>
<path d="M34.689 28.6554C33.8624 28.8402 33.2106 29.2602 32.6702 29.9154C31.2713 31.5786 31.6369 34.2498 33.4491 35.5098C34.0531 35.9466 34.2439 35.9802 36.3422 36.081C38.9173 36.1986 39.5214 36.417 40.4592 37.5762C41.1905 38.4834 41.3653 39.3065 41.3653 41.8937V44.0441H32.6543C23.2756 44.0441 23.514 44.0273 21.0502 44.9681C19.1585 45.7073 16.6469 47.4209 15.3753 48.8321L14.8984 49.3529L15.7727 50.1593L16.6311 50.9657L17.7597 49.9577C19.079 48.7817 20.2395 48.0425 21.7178 47.4209C23.8638 46.5137 24.5314 46.4633 33.3696 46.5137C40.5864 46.5809 41.5561 46.6145 42.478 46.8833C47.1197 48.2609 50.2512 51.9065 51.4593 57.3329C52.6197 62.4905 51.5388 68.5889 48.9954 71.3441C47.7714 72.6713 46.2931 73.3097 41.1746 74.7712C35.0228 76.5352 33.4809 77.6272 29.7135 82.9528C27.1542 86.5984 25.8985 87.6904 23.6889 88.228C18.8247 89.3872 15.9952 86.2792 14.4215 78.0136C13.6585 73.948 13.4836 71.4617 13.4677 64.2881C13.4677 56.8457 13.4518 56.9297 14.6758 54.2417C15.0256 53.4689 15.2958 52.8137 15.264 52.7969C15.2322 52.7801 14.803 52.4945 14.3102 52.1417L13.3883 51.5201L13.1657 51.9065C12.5776 52.8641 11.7669 54.9473 11.4012 56.4761C11.0038 58.1057 10.988 58.3073 11.0038 63.3641C11.0197 71.6801 11.5125 76.9384 12.7365 81.3904C14.7871 88.8664 18.475 91.924 24.0068 90.7312C26.8681 90.1264 28.6803 88.6312 31.6369 84.4648C34.3234 80.6848 35.5156 79.5256 37.598 78.6184C38.7425 78.1144 42.6847 76.888 43.1298 76.888C43.4159 76.888 43.4318 77.0896 43.4318 82.5664V88.2448L43.9564 89.152C44.5922 90.2776 45.7526 91 46.913 91C48.4868 91 50.0764 89.6728 50.4261 88.0432C50.5056 87.6904 50.585 84.5488 50.585 81.0712V74.7544L51.666 75.0064C53.9073 75.5104 56.8958 74.9896 58.6761 73.8137C59.4073 73.3097 59.614 73.2593 60.0273 73.3769C62.2845 74.0656 66.1473 72.5369 70.1213 69.4121C70.9797 68.7401 71.7427 68.1017 71.7904 68.0177C71.8381 67.9169 71.5519 67.4465 71.1227 66.9593L70.3597 66.0857L68.643 67.4297C65.2412 70.1177 61.9348 71.4785 60.3929 70.8569C59.8683 70.6385 59.5504 69.7313 59.1212 67.2449C58.8033 65.4137 58.7715 64.6577 58.7715 59.5841C58.7715 54.4937 58.8033 53.8049 59.1053 52.3601C59.5822 50.1425 59.8206 49.5713 60.377 49.4369C60.6313 49.3697 64.3828 49.2689 68.7065 49.1849C74.4927 49.0841 76.6864 49.1009 76.9725 49.2353C77.2586 49.3697 77.4176 49.6385 77.5765 50.2601C78.2124 52.9817 75.971 58.9625 72.6805 63.3641L71.9175 64.3721L72.8077 65.1953L73.6979 66.0017L74.2384 65.3633C74.5245 64.9937 75.2557 63.9185 75.8757 62.9609C79.6112 57.1313 81.0578 50.8817 79.3092 48.1433C78.8959 47.4881 78.1011 46.8833 77.3858 46.6649C77.0043 46.5641 65.2094 46.6817 60.2021 46.8497C60.0273 46.8497 59.3755 46.6649 58.7715 46.4297C58.1516 46.1945 57.1183 45.9089 56.4666 45.7913C55.02 45.5561 50.9347 45.6905 49.5359 46.0265L48.5503 46.2617L48.4709 42.1289C48.3914 37.4922 48.3119 37.0386 47.231 34.7202C45.9434 31.9818 43.257 29.7138 40.3321 28.9242C39.2511 28.6218 35.5315 28.4538 34.689 28.6554ZM40.4116 31.5954C42.3827 32.3178 43.9882 33.729 45.0055 35.6274C45.8798 37.257 46.007 38.013 46.0864 41.9945L46.1659 45.6401L45.7208 45.4553C45.4665 45.3545 44.9419 45.1193 44.5445 44.9681L43.8292 44.6657L43.7338 41.6753C43.6861 40.0121 43.559 38.433 43.4795 38.1642C42.939 36.4338 41.7309 34.9554 40.3162 34.2666C39.3147 33.7794 37.9795 33.5442 36.1673 33.5442C35.0705 33.5442 34.8002 33.4938 34.53 33.2082C33.9419 32.5866 34.2598 31.3098 35.0546 31.125C35.2453 31.0914 36.2945 31.0746 37.3754 31.125C38.9014 31.1754 39.6009 31.293 40.4116 31.5954ZM57.1342 48.4793L57.7224 48.6809L57.4203 49.3865C56.5778 51.4025 56.244 54.9809 56.3553 60.8273C56.4348 65.8841 56.6573 68.0513 57.3409 70.3025L57.7065 71.5457L56.8958 71.9489C56.4348 72.1673 55.6718 72.4361 55.1949 72.5369C54.3365 72.7217 52.2064 72.6713 51.666 72.4361C51.3957 72.3185 51.3957 72.2849 51.6819 71.8649C52.4926 70.6553 53.5258 67.9841 53.9232 66.1025C54.2411 64.5233 54.3842 61.7177 54.2252 59.8361C53.8914 55.7033 52.6356 52.2257 50.5056 49.4537L49.7902 48.5129L50.5373 48.4121C50.9665 48.3449 51.3798 48.2777 51.4593 48.2273C51.7931 48.0929 56.5778 48.2945 57.1342 48.4793ZM48.2006 81.256C48.2006 86.2456 48.1529 87.4048 47.9622 87.7912C47.5966 88.564 46.913 88.6984 46.2295 88.1272L45.8162 87.7744L45.848 81.8944L45.8957 76.0144L46.8495 75.628C47.374 75.4096 47.8986 75.2248 48.0099 75.2248C48.1529 75.208 48.2006 76.5184 48.2006 81.256Z" fill="#177B63"/>
<path d="M66.8309 53.0659L66.8786 54.2923L68.039 54.3427L69.1835 54.3931V53.1163V51.8563H67.9913H66.7832L66.8309 53.0659Z" fill="#177B63"/>
<path d="M71.5994 53.0659L71.6471 54.2923L72.8075 54.3427L73.9521 54.3931V53.1163V51.8563H72.7599H71.5518L71.5994 53.0659Z" fill="#177B63"/>
</svg>
