<svg width="97" height="96" viewBox="0 0 97 96" fill="none" xmlns="http://www.w3.org/2000/svg">
<path d="M55.8899 11.237C55.1228 11.7161 55.0215 12.442 55.4991 14.3438C56.2228 17.2618 58.6109 21.138 61.3608 23.8382C62.9529 25.4206 64.2121 25.9433 66.3542 25.9433C67.7871 25.9433 70.2186 26.553 71.912 27.337C74.9225 28.7306 77.6435 31.4309 79.4237 34.799C82.0868 39.8656 83.1144 46.9356 82.1881 53.9621C80.6974 65.3438 75.0817 73.7494 65.7897 78.4676C61.2161 80.8049 57.1057 81.7776 51.2005 81.9373C46.6848 82.0535 43.1967 81.6034 39.752 80.442C35.8008 79.1064 33.6587 77.553 30.8219 73.9962C28.8824 71.5863 28.1154 70.9911 26.5233 70.6427C25.0615 70.3233 23.0786 70.9911 21.8339 72.2106C20.3576 73.6769 19.605 76.0432 19.4892 79.6L19.4023 81.9373L19.8221 82.4019C20.2997 82.9245 21.0378 83.0552 21.6457 82.7213C22.2681 82.3874 22.3839 82.0099 22.4997 79.8758C22.6299 77.4659 22.8036 76.5658 23.3825 75.3318C23.8312 74.3592 24.2944 73.9672 25.2641 73.7059C26.2483 73.4301 26.7114 73.7494 28.6798 76.1739C30.2719 78.1482 30.8798 78.7725 32.11 79.7887C34.9613 82.1406 39.4046 83.8972 44.4848 84.6666C46.6414 84.986 51.0847 85.1021 53.4583 84.8989C59.7109 84.3472 64.5739 82.8519 69.2344 80.05C78.2369 74.6495 83.6644 65.8809 85.242 54.1072C85.546 51.8861 85.5894 46.1226 85.3289 44.1337C84.3591 36.8604 81.971 31.6196 77.875 27.7434C76.3843 26.3352 75.2988 25.5803 73.3593 24.6512C71.087 23.5479 68.9739 23.0107 66.195 22.822C64.5305 22.7059 64.1542 22.4881 62.7069 20.8186C60.3188 18.0457 58.7846 15.2874 58.3069 12.892C58.1333 12.0065 58.003 11.7016 57.6556 11.3822C57.1491 10.9322 56.4833 10.8741 55.8899 11.237Z" fill="#177B63"/>
<path d="M46.9598 13.4148C46.2217 13.7777 46.0046 14.4165 46.2217 15.6214C47.0612 20.238 48.6967 24.3755 50.7953 27.1774C51.1427 27.6565 51.9242 28.542 52.5176 29.1518C53.1111 29.747 53.6032 30.3277 53.6032 30.4293C53.6032 30.5309 53.2268 31.3729 52.7492 32.3021C52.2861 33.2457 51.7216 34.5523 51.5045 35.2346C50.8098 37.3396 49.594 40.6351 49.1309 41.6659C47.4085 45.4985 43.3415 50.3473 39.9981 52.5975C39.4771 52.946 37.5376 53.9477 35.685 54.8187C32.2404 56.4447 30.7641 57.3448 28.2023 59.3337C26.1036 60.9741 25.8142 61.0903 22.0945 61.5694C19.5327 61.9178 17.6077 62.8179 15.9143 64.5019C13.0631 67.3328 11.717 71.3687 11.5289 77.6403C11.4131 81.1825 11.6012 81.7632 12.9183 81.9374C13.4394 82.01 13.5551 81.9665 13.9894 81.5309L14.4814 81.0373L14.5828 78.1338C14.6262 76.5369 14.742 74.7658 14.8143 74.1851C15.3354 70.1783 16.8696 67.2167 19.2143 65.6923C20.3287 64.9665 21.1248 64.7487 23.4984 64.4729C26.5233 64.1244 27.7391 63.6018 30.272 61.6129C32.5443 59.8127 33.6732 59.1159 36.3942 57.8819C38.7389 56.8076 40.5336 55.9075 41.3731 55.3704C45.0204 53.0766 49.7243 47.618 51.6637 43.408C52.4742 41.6804 52.7926 40.8384 53.9216 37.5574C54.3992 36.1637 55.1084 34.4216 55.4847 33.7103C56.6715 31.4891 57.0044 30.1099 56.6281 29.0066C56.5268 28.7453 56.1215 28.2662 55.6439 27.8887C52.7058 25.5079 50.4479 21.1671 49.4059 15.8682C49.0585 14.1261 48.9427 13.8358 48.5085 13.56C47.9585 13.2115 47.4809 13.168 46.9598 13.4148Z" fill="#177B63"/>
<path d="M73.3886 45.4547C72.4767 45.7886 71.8978 46.3548 70.6675 48.0824C67.5268 52.5102 63.3729 55.4137 57.3954 57.3881C53.8928 58.5495 50.3468 59.1302 43.7904 59.6238C39.347 59.9577 38.2905 60.1319 36.5971 60.7562C35.1932 61.2643 34.3971 61.7434 33.3695 62.7305C31.8064 64.1968 31.0537 65.7937 30.9235 67.8988C30.5906 73.1686 35.2366 77.2916 43.3996 78.9176C52.2139 80.6887 61.6361 78.1627 69.1768 72.0218C70.9715 70.57 73.7214 67.681 74.9227 65.997C76.5872 63.6597 78.0056 60.4658 78.57 57.7365C79.3661 53.991 78.6858 49.5486 76.9345 46.8774C76.0806 45.5709 74.6333 44.9902 73.3886 45.4547ZM74.5609 48.9244C75.3714 50.2165 76.0082 53.4539 75.8201 55.3266C75.4004 59.827 73.2149 63.95 69.2202 67.8407C66.615 70.3668 64.4006 71.9201 61.2019 73.488C57.7138 75.2011 54.7757 76.0141 50.9113 76.3335C44.9772 76.827 38.276 74.9543 35.526 72.0363C34.3971 70.8458 33.9919 69.8586 33.9919 68.3343C33.9919 67.2745 34.0497 66.9987 34.3971 66.3309C34.9616 65.2566 35.801 64.4726 37.0168 63.8919C38.4641 63.1951 39.5062 63.0209 44.0509 62.6725C48.2048 62.3676 49.6232 62.2079 51.7942 61.8595C59.798 60.5529 66.1518 57.5623 70.5518 53.0038C71.6373 51.8714 72.1873 51.1891 73.8228 48.9099C74.0109 48.6631 74.1991 48.4453 74.228 48.4453C74.257 48.4453 74.4017 48.6631 74.5609 48.9244Z" fill="#177B63"/>
</svg>
