<svg width="96" height="96" viewBox="0 0 96 96" fill="none" xmlns="http://www.w3.org/2000/svg">
<path d="M38.7344 11.037C37.5925 11.0987 34.5836 11.6702 33.1177 12.1027C24.5229 14.574 17.2705 21.0765 13.6289 29.5561C11.6847 34.0971 10.6663 39.5802 11.0983 43.2717C11.6847 48.3996 13.2432 55.6899 14.6936 60.0764C16.2367 64.8182 17.8569 67.8455 19.7857 69.7144C21.4676 71.3207 22.8872 71.7995 24.8006 71.398C27.1924 70.9037 28.72 69.8997 32.5313 66.3473C34.0126 64.9572 35.3242 63.7524 35.4322 63.6906C35.602 63.598 35.71 63.6906 35.8334 64.0459C36.1421 64.9572 37.3456 67.3203 38.0554 68.417C42.9469 76.0162 52.2206 79.8775 61.1549 78.0241C62.9294 77.6534 64.5496 77.0973 66.3396 76.2324L67.9443 75.4447L72.2032 79.6767C74.5486 82.009 76.7089 84.0633 77.0175 84.2486C77.8662 84.7583 79.3629 85.0981 80.2887 84.9745C80.7362 84.9282 81.5232 84.6656 82.0324 84.4185C84.9025 83.0439 85.8437 79.4296 84.0229 76.7884C83.7298 76.356 81.6929 74.2245 79.5018 72.0312L75.5053 68.0308L76.4003 66.3164C77.3261 64.4938 78.0359 62.5013 78.4988 60.339C78.8846 58.4855 78.8846 54.0063 78.4988 52.1529C77.6656 48.2606 76.0145 44.7854 73.6845 42.0515C73.2061 41.48 72.8358 41.0012 72.8667 40.9703C73.6845 40.4606 74.9498 39.3177 75.6442 38.4373C77.3107 36.3367 78.576 33.9272 80.5048 29.2163C81.0603 27.8571 82.125 25.3549 82.8656 23.6559C84.455 20.0417 84.8562 18.806 84.9796 17.3233C85.0876 16.0104 84.7636 14.7593 84.0692 13.6627C83.452 12.6742 82.6959 12.0409 81.4923 11.4849L80.4893 11.0061H59.9513C48.6716 10.9906 39.1201 11.0061 38.7344 11.037ZM57.4979 13.5855C57.5133 13.6009 57.4362 14.2805 57.3281 15.0837C56.8344 18.667 56.7109 20.8757 56.7109 26.2817C56.7109 29.3399 56.7572 32.3363 56.8189 32.9387L56.9424 34.0353L55.1987 34.128C49.9369 34.3751 44.8603 36.661 40.9409 40.5842C37.8548 43.6733 35.8026 47.4729 34.8459 51.8903C34.5836 53.1568 34.5064 53.9909 34.5064 56.1687C34.5064 57.7596 34.5836 59.2732 34.707 59.8602L34.8922 60.8332L33.9972 61.6364C33.5034 62.0689 32.0684 63.3972 30.7877 64.5865C27.4547 67.7065 26.4208 68.4324 24.6 68.9112C23.273 69.251 22.5632 69.0193 21.3905 67.8455C19.8011 66.2546 18.4587 63.5825 17.0545 59.2423C15.7583 55.1956 14.4622 49.3881 13.7215 44.3838C13.3975 42.1133 13.382 41.7889 13.5518 39.9046C14.2153 32.707 17.1162 26.4052 22.054 21.4627C26.6523 16.8599 32.0684 14.296 38.8887 13.4773C39.367 13.4156 57.4516 13.5391 57.4979 13.5855ZM80.0419 13.57C81.014 13.8171 82.1558 14.9138 82.4027 15.8559C82.7731 17.2306 82.5262 18.2346 80.8288 22.1114C80.2425 23.4706 79.2086 25.9419 78.5142 27.5945C77.0483 31.1624 75.5824 34.2515 74.7029 35.5953C73.6691 37.1862 72.0797 38.7153 71.123 39.0551C70.9687 39.1169 70.3669 38.7771 69.5028 38.1592C67.0185 36.383 63.8244 35.0084 60.8309 34.4369L59.4267 34.1743L59.3033 33.1703C59.2415 32.5989 59.1798 29.6179 59.1798 26.5133C59.1798 20.9684 59.3187 18.5898 59.8125 15.2072C59.9359 14.3732 60.0285 13.6627 60.0285 13.6163C60.0285 13.57 62.6208 13.5237 65.7841 13.4928C68.9319 13.4773 73.2833 13.4464 75.4281 13.4156C78.005 13.4001 79.5789 13.4464 80.0419 13.57ZM60.0439 36.8C64.0096 37.4796 67.6049 39.3485 70.5212 42.2677C73.129 44.8626 74.8418 47.859 75.8139 51.535C76.246 53.1877 76.2768 53.5121 76.2923 56.0915C76.3077 58.2693 76.246 59.1497 76.0145 60.1845C74.2554 68.2625 68.2067 74.1473 60.0902 75.7227C58.0997 76.1088 54.8593 76.0779 52.8224 75.6455C44.8449 73.9774 38.9504 68.0772 37.2376 60.0301C36.8519 58.2075 36.8519 54.2843 37.2376 52.4618C38.9504 44.461 44.9529 38.4527 52.8533 36.8618C54.6741 36.4911 58.0688 36.4602 60.0439 36.8ZM78.1902 74.2708C82.4799 78.611 82.6805 78.8736 82.5107 80.1401C82.341 81.4375 81.0448 82.5805 79.7641 82.5805C78.6994 82.565 78.0822 82.0708 74.024 77.9932L70.0429 73.9928L71.0922 73.097C71.6631 72.6027 72.5426 71.7532 73.0364 71.2126C73.5302 70.672 73.9931 70.2241 74.0548 70.2241C74.1011 70.2241 75.9682 72.0467 78.1902 74.2708Z" fill="#177B63"/>
<path d="M34.7996 17.4776C34.0281 18.2344 34.5682 19.5627 35.6483 19.5627C36.281 19.5627 36.8828 18.9604 36.8828 18.3271C36.8828 17.6938 36.281 17.0915 35.6483 17.0915C35.3551 17.0915 35.0311 17.2305 34.7996 17.4776Z" fill="#177B63"/>
<path d="M28.8587 19.2847C26.8682 20.4741 25.572 21.4471 24.1215 22.8835C23.1186 23.8566 22.9951 24.042 22.9951 24.5517C22.9951 25.293 23.4272 25.741 24.1524 25.741C24.6308 25.741 24.8776 25.5711 26.0041 24.5053C27.47 23.1307 29.013 21.9877 30.6795 21.0764C31.2967 20.7366 31.8677 20.335 31.9448 20.1806C32.3614 19.3929 31.7751 18.3271 30.911 18.3271C30.6487 18.3271 29.8154 18.7287 28.8587 19.2847Z" fill="#177B63"/>
<path d="M54.2576 39.4876C50.6468 40.0591 47.2367 41.7736 44.7524 44.2758C39.7838 49.2338 38.395 56.524 41.1571 63.0266C43.1168 67.6293 47.4064 71.3054 52.3905 72.6491C53.7792 73.0198 54.1959 73.0662 56.6339 73.0662C59.0719 73.0662 59.4885 73.0198 60.8464 72.6491C71.2157 69.8689 76.4312 58.5628 71.8175 48.9248C69.0863 43.21 63.5313 39.5958 57.174 39.4104C56.0784 39.3795 54.7514 39.4104 54.2576 39.4876ZM60.1058 42.2524C61.6642 42.6694 62.4358 42.9783 63.5622 43.5962C67.0495 45.5268 69.6109 48.8322 70.6139 52.7244C71.1694 54.8714 71.1694 57.6207 70.6294 59.7213C69.9504 62.3624 68.8703 64.2931 66.9878 66.2701C65.2132 68.1082 63.1147 69.3901 60.5378 70.1779C59.3034 70.5485 58.9485 70.5794 56.711 70.5949C53.8564 70.5949 52.6837 70.3478 50.4771 69.2975C47.3756 67.8147 44.8758 65.2662 43.4717 62.1925C41.9132 58.7791 41.8206 54.4543 43.2248 50.9173C44.9067 46.6853 48.8106 43.2872 53.1157 42.2833C54.9828 41.8354 55.1371 41.8199 57.174 41.8817C58.3621 41.928 59.4114 42.0516 60.1058 42.2524Z" fill="#177B63"/>
<path d="M62.5747 48.4306C61.6797 48.6623 61.3094 48.9712 57.7604 52.5083L54.1651 56.0916L53.0541 54.9795C51.619 53.5894 51.1252 53.3269 49.8445 53.3269C48.6255 53.3269 47.8077 53.713 47.0207 54.6243C46.1103 55.7055 45.9097 57.2191 46.5115 58.5011C46.6504 58.81 48.0391 60.3082 49.5822 61.8373C52.0511 64.2777 52.4831 64.633 53.1312 64.8183C53.9799 65.05 54.952 64.9728 55.7235 64.6021C56.0321 64.4631 58.5628 62.0381 61.51 59.0571C67.065 53.4813 67.1267 53.3886 67.1267 51.9986C67.1267 50.732 66.278 49.3419 65.1207 48.755C64.4572 48.4152 63.2382 48.2607 62.5747 48.4306ZM64.272 51.149C64.5344 51.3962 64.6578 51.6896 64.6578 52.0294C64.6578 52.4928 64.1949 53.0025 59.6583 57.5435L54.6588 62.5478L54.0725 62.4552C53.5633 62.3625 53.1312 62.0072 51.1407 60.0148C49.8445 58.7173 48.7335 57.4817 48.6872 57.2809C48.4866 56.4777 49.1501 55.7055 50.0297 55.7055C50.2303 55.7055 50.9555 56.3078 52.0048 57.3272C53.4398 58.7482 53.7021 58.949 54.1805 58.949C54.6588 58.949 55.0137 58.6401 58.6399 54.995C60.8002 52.8172 62.7136 50.9946 62.8833 50.9174C63.4388 50.6857 63.8863 50.7475 64.272 51.149Z" fill="#177B63"/>
</svg>
