<svg width="96" height="96" viewBox="0 0 96 96" fill="none" xmlns="http://www.w3.org/2000/svg">
<path d="M46.3697 12.0954C44.1771 12.4024 41.7506 13.3379 39.8942 14.5804C38.4909 15.5159 36.4298 17.6647 35.5527 19.1118C31.9276 25.0173 32.6292 32.253 37.3507 37.4861C39.4556 39.8396 43.2562 41.7691 46.5305 42.1491C46.9837 42.2076 47.3637 42.2661 47.3637 42.2953C47.3637 42.3245 47.2322 43.1577 47.0714 44.1371C46.6036 47.0168 46.3551 49.6333 46.1797 53.4924C46.0043 57.3076 46.0481 58.0823 46.4721 58.9155C46.6296 59.2222 46.5282 59.5984 46.238 59.7846L45.405 60.3188C40.5081 63.4908 35.5527 65.7711 31.8691 66.5605C31.2698 66.6774 30.0565 66.8382 29.1649 66.8967C28.1069 66.9736 27.0804 67.2911 26.1637 67.8249L25.2473 68.3584C23.6936 69.2693 23.1466 68.7807 24.0069 67.1985C24.4303 66.4197 24.8926 65.622 25.2473 65.0841C27.8054 61.1958 31.5037 57.8923 35.8889 55.5827C37.3653 54.7933 37.57 54.6033 37.57 54.0186C37.57 53.4778 37.1022 53.0246 36.5175 53.0246C35.6258 53.0246 31.5914 55.4073 29.4134 57.2198C25.2473 60.6988 21.7684 65.6103 20.2481 70.2003C20.0289 70.8434 19.7804 71.4135 19.6781 71.472C19.3272 71.7059 17.9239 71.5889 17.2954 71.282C16.1845 70.7411 15.8629 70.1856 15.2928 67.803C13.831 61.7221 13.0271 55.1588 13.2025 50.7589C13.3633 46.6806 13.9626 44.4441 15.512 42.1345C18.5671 37.5592 23.0255 34.4895 28.8871 32.9254C30.3927 32.5162 30.8459 32.2238 30.8459 31.6099C30.8459 31.1129 30.305 30.5135 29.8519 30.5135C28.8433 30.5135 24.8381 31.8291 22.9085 32.7939C17.5877 35.4689 12.9101 40.5704 11.7699 44.9849C10.5859 49.5164 10.776 56.2551 12.2816 64.207C12.8955 67.4521 13.6264 70.361 14.0064 71.0481C14.4742 71.9251 15.3805 72.7583 16.4037 73.2846C17.3539 73.7669 19.0641 73.9277 20.1312 73.6208C20.5113 73.5184 22.5139 72.466 24.5896 71.2673C28.2732 69.1624 28.3901 69.1039 29.2233 69.1039C30.2173 69.1039 32.2638 68.7677 33.6378 68.3877L33.7419 68.3582C34.2804 68.2055 34.8591 68.3631 35.2458 68.7677C36.9853 70.5511 39.4702 72.349 41.926 73.5769C43.5485 74.3809 46.092 75.3018 47.1737 75.4772C47.527 75.5277 47.7907 75.8282 47.795 76.185L47.8315 79.2778C47.8753 83.3414 47.8753 83.3414 48.7816 83.5169C49.1617 83.5899 49.3225 83.5315 49.6148 83.2391C49.8582 82.9958 49.9949 82.6657 49.9949 82.3216V78.5615C49.9949 73.5623 50.068 73.7962 48.387 73.4892C46.0335 73.0653 42.5399 71.6182 40.4204 70.2003C39.3094 69.4401 36.9853 67.5252 36.9853 67.3644C36.9853 67.306 37.3507 67.1013 37.7892 66.9259L38.0503 66.8187C38.3939 66.6775 38.7872 66.7355 39.0756 66.9698C42.1599 69.4548 44.411 70.6826 47.276 71.4281C48.7524 71.8082 49.3225 71.8228 49.7025 71.4427C49.9803 71.165 49.9949 70.9604 49.9949 66.1366V63.055C49.9949 61.9636 50.8492 61.0632 51.939 61.0058C60.8996 60.5673 69.4509 56.6351 75.7949 50.0865C78.5869 47.2068 80.1363 44.8972 81.5104 41.5937C81.9635 40.5266 83.0891 37.9977 84.0246 35.9951C85.7056 32.4138 85.7348 32.3261 85.7348 31.3175C85.7202 30.075 85.384 29.3295 84.4631 28.5548C83.3814 27.6193 82.9867 27.5754 78.0022 27.7362C73.1345 27.897 68.6761 28.204 65.5626 28.584L65.3302 28.6122C64.3606 28.73 63.5025 27.982 63.4869 27.0053C63.4577 22.9416 62.0398 19.5065 59.204 16.6269C57.0406 14.4196 54.8918 13.1625 52.0852 12.4462C50.4919 12.0516 47.8753 11.8761 46.3697 12.0954ZM50.4773 14.3611C54.6433 15.092 58.0784 17.6062 59.9348 21.3045C61.9521 25.3097 61.7767 29.8704 59.4817 33.7879C58.6339 35.2204 56.2512 37.5592 54.8187 38.3632C54.2194 38.6994 53.0938 39.1818 52.3337 39.4449C51.1497 39.8396 50.6819 39.9273 49.0594 39.9857C46.896 40.0588 45.6681 39.898 43.9432 39.2695C38.3885 37.2522 34.8219 31.4929 35.5235 25.6898C35.7281 24.0087 36.1082 22.7516 36.8391 21.3045C39.3825 16.2468 44.9811 13.3964 50.4773 14.3611ZM82.6359 29.9727C83.2352 30.2358 83.4691 30.5135 83.5714 31.1275C83.6299 31.5514 83.4399 32.0776 82.3728 34.3141C81.6712 35.7905 80.7503 37.8662 80.3117 38.904C78.3968 43.4647 77.0959 45.5696 74.4355 48.3616C71.6289 51.2997 68.3984 53.6385 64.5394 55.5242C60.1395 57.6584 56.412 58.6085 51.6028 58.8278C49.3079 58.9301 48.884 58.7985 48.4454 57.863C48.0069 56.9421 48.5039 48.8732 49.2786 44.2541C49.454 43.2455 49.6148 42.383 49.6441 42.3392C49.6733 42.2953 50.1995 42.1638 50.8281 42.0614C54.3802 41.4913 57.8445 39.4741 60.1249 36.6529C61.1335 35.3958 62.3321 33.2324 62.7706 31.8876C62.9228 31.4222 63.3261 31.0836 63.8108 31.0144L64.1447 30.9667C67.6529 30.4843 72.6083 30.0896 77.4759 29.9288C79.2885 29.8704 81.0865 29.8119 81.4665 29.8119C81.8466 29.7973 82.3728 29.8704 82.6359 29.9727ZM47.8023 65.3765C47.8023 67.7884 47.7438 69.2501 47.6561 69.2501C47.3345 69.2501 45.0688 68.3438 44.1625 67.8468C43.0369 67.2329 40.932 65.7565 40.932 65.5811C40.932 65.508 41.2682 65.2741 41.6921 65.0695C42.5692 64.631 45.9604 62.5991 46.9252 61.9559C47.2906 61.7074 47.6268 61.5028 47.6999 61.5028C47.7584 61.5028 47.8023 63.2423 47.8023 65.3765Z" fill="#177B63"/>
<path d="M48.2848 18.2933C46.7354 18.8049 45.259 20.1351 44.762 21.4945C44.5791 21.9701 44.1729 22.3245 43.6769 22.4412L43.4756 22.4885C41.5753 22.927 40.3182 23.8772 39.5289 25.4851C39.1488 26.2598 39.105 26.4937 39.105 27.7362C39.105 29.0226 39.1488 29.2126 39.5874 30.1043C40.3913 31.7268 41.7654 32.7208 43.6803 33.0424L43.8216 33.0673C44.2613 33.1449 44.5185 33.6072 44.3527 34.0218C43.9434 35.0158 43.9288 35.352 44.2796 35.7905C44.4696 36.0244 44.7035 36.1267 45.0689 36.1267C45.7414 36.1267 45.9168 35.9659 46.3407 34.9427C46.3472 34.9266 46.3537 34.9105 46.3602 34.8946C46.5891 34.3313 47.0007 34.18 47.4955 34.5334C48.3725 35.1766 49.732 35.6297 50.7259 35.6297C52.2754 35.6297 54.1757 34.6796 55.0089 33.4809C55.769 32.37 56.0467 31.5514 56.0467 30.2943C56.0467 29.1834 55.9883 28.9495 55.3451 27.4293C55.2574 27.2246 55.3743 27.1661 56.0175 27.0784C56.9092 26.9615 57.5231 26.6838 57.6547 26.3476C57.8301 25.8798 57.7424 25.3974 57.4354 25.0904C57.1431 24.7981 57.0115 24.7835 56.076 24.8566C55.5175 24.9038 55.0381 24.4632 55.0381 23.9027V23.5995C55.0235 22.547 54.9504 22.0646 54.7019 21.4214C53.9418 19.5211 52.1 18.2202 50.0243 18.1325C49.3373 18.1032 48.6649 18.1763 48.2848 18.2933ZM50.7406 20.4421C51.5592 20.7198 52.2023 21.3045 52.5678 22.0938C53.1378 23.3217 52.9771 24.535 52.1146 25.5728C51.8807 25.8506 51.7492 26.1868 51.7492 26.5083C51.7492 27.0053 51.8223 27.1077 52.7432 27.8385C54.1611 28.9495 54.2634 31.1714 52.9624 32.4431C51.2229 34.1387 48.7526 33.5979 47.7293 31.2883C47.2616 30.2358 46.9108 30.1627 45.2882 30.7328C43.8703 31.2444 42.2331 30.5428 41.59 29.1541C40.4644 26.7422 42.277 24.3303 44.9959 24.6081C46.1506 24.7396 46.4722 24.4619 46.6184 23.2779C46.75 22.2108 47.0569 21.5968 47.7293 21.056C48.6356 20.3251 49.732 20.1059 50.7406 20.4421Z" fill="#177B63"/>
<path d="M49.118 22.4739C48.9572 22.6347 48.8257 22.9563 48.8257 23.1902C48.8257 24.2134 50.0097 24.6519 50.6821 23.8772C51.0914 23.3948 51.106 23.0586 50.7114 22.5616C50.3313 22.0792 49.5566 22.0354 49.118 22.4739Z" fill="#177B63"/>
<path d="M43.5924 27.0493C43.1392 27.5317 43.1685 28.2187 43.6508 28.5988C43.8701 28.7742 44.1332 28.9058 44.2355 28.9058C44.6448 28.9058 45.1565 28.5549 45.3172 28.1895C45.7558 27.1078 44.3817 26.2015 43.5924 27.0493Z" fill="#177B63"/>
<path d="M50.3458 29.5049C50.0242 29.6657 49.7026 30.2066 49.7026 30.572C49.7026 30.6743 49.8342 30.9375 50.0096 31.1567C50.6089 31.9168 51.8953 31.4929 51.8953 30.5282C51.8953 29.7242 51.0328 29.1687 50.3458 29.5049Z" fill="#177B63"/>
<path d="M41.3998 18.761C40.9759 19.0534 40.9467 19.9743 41.3706 20.3543C42.0722 20.9975 43.1247 20.5005 43.1247 19.5357C43.1247 18.9072 42.73 18.5271 42.1015 18.5271C41.8968 18.5271 41.5752 18.6295 41.3998 18.761Z" fill="#177B63"/>
<path d="M52.056 64.3825C51.749 64.7625 51.749 64.821 51.7783 73.8693C51.8221 83.8969 51.7637 83.3268 52.7284 83.5169C53.1085 83.5899 53.2693 83.5315 53.5616 83.2391C53.805 82.9958 53.9417 82.6657 53.9417 82.3216V73.7085C53.9417 64.7625 53.9417 64.5725 53.6493 64.2801C53.2108 63.8416 52.4361 63.8855 52.056 64.3825Z" fill="#177B63"/>
</svg>
