<svg width="96" height="96" viewBox="0 0 96 96" fill="none" xmlns="http://www.w3.org/2000/svg">
<path d="M35.4641 11.1543C32.667 11.7039 30.5946 12.8031 28.8409 14.6977C27.2178 16.4476 26.4497 18.5302 26.6091 20.7285L26.696 21.9L25.6381 22.3049C23.1888 23.245 20.4352 24.9082 18.3338 26.716C14.8845 29.6808 13.2324 33.282 12.6237 39.1393C12.4353 41.0195 12.5222 45.7632 12.7831 47.6288L12.957 48.8003L12.2179 49.5379C11.2759 50.4779 10.986 51.3891 11.0005 53.3994C11.0005 56.6968 12.5367 59.7774 14.7686 60.9488C15.8121 61.5129 16.5657 61.7153 17.7251 61.7587L18.6381 61.7876L18.986 63.017C20.0584 66.9074 21.9425 70.2771 24.8845 73.618L26.0729 74.963L25.5221 79.2295C25.2178 81.5724 24.9714 83.6694 24.9569 83.8864C24.9569 84.3926 25.5366 85 26.0439 85C26.2468 85 26.5656 84.8554 26.7395 84.6818C27.0294 84.3926 27.1163 83.9298 27.5511 80.5889C27.812 78.5208 28.0439 76.7997 28.0728 76.7853C28.1018 76.7564 28.5946 77.089 29.1888 77.5229C30.754 78.7088 31.8554 79.3307 33.0003 79.6923C33.9424 79.9815 34.3047 80.0104 37.7104 80.0104C41.1162 80.0104 41.4785 79.9815 42.4205 79.6923C43.5655 79.3307 44.6669 78.7088 46.2321 77.5229C46.8263 77.089 47.3191 76.7564 47.348 76.7853C47.3625 76.7997 47.5944 78.4919 47.8553 80.5166C48.1306 82.7005 48.406 84.3347 48.5219 84.5227C48.7828 84.9277 49.3625 85.0868 49.8263 84.8698C50.5364 84.5517 50.5364 84.3636 49.9132 79.4898L49.3335 74.9485L50.3045 73.8639C51.6668 72.3453 52.7973 70.8701 53.6668 69.4383L54.406 68.209L54.9132 68.9466C55.6523 70.0602 57.348 71.7812 58.5798 72.6924C60.6088 74.211 63.5798 75.4981 65.5073 75.6861C66.2609 75.7729 66.4059 75.744 66.6812 75.4692C67.058 75.0932 67.087 74.2833 66.7392 73.9796C66.5943 73.8494 65.7972 73.5891 64.9566 73.3721C59.6813 72.0705 55.3335 67.5003 54.377 62.2794C54.0726 60.6162 54.1596 60.674 51.3335 59.9798C50.3335 59.7195 49.5074 59.5026 49.4785 59.4881C49.464 59.4592 50.3915 59.1989 51.5509 58.8951C53.2465 58.4468 53.7248 58.2732 53.9567 57.984C54.1016 57.7815 54.232 57.5212 54.232 57.3766C54.232 57.2464 54.3625 56.639 54.5074 56.0316C55.8407 50.854 59.8117 46.8768 64.9276 45.5751C71.6667 43.8686 78.6231 47.195 81.5507 53.5151C84.768 60.4716 81.8405 68.8164 74.9565 72.273C73.7971 72.8515 72.2899 73.3721 71.3768 73.5168C70.6232 73.6325 69.8841 74.211 69.8841 74.7027C69.8841 74.8618 70.0145 75.151 70.1884 75.368C70.5652 75.8452 71.058 75.8597 72.6667 75.4547C79.8695 73.618 84.9854 67.0231 84.9999 59.546C85.0144 54.9903 83.3477 50.9841 80.1014 47.759C75.1594 42.8273 67.6957 41.5546 61.3624 44.5772C60.6233 44.9243 59.7248 45.4161 59.3624 45.6764C59.0001 45.9222 58.6813 46.0958 58.6668 46.0669C58.6378 46.0524 58.5364 45.4016 58.4494 44.6495C57.5364 36.7675 51.9857 31.9659 42.2756 30.6932C40.0003 30.3895 35.2322 30.3461 33.2177 30.6064C28.7685 31.1849 25.2758 32.4287 22.6381 34.3956C18.6816 37.3315 16.7106 41.6413 16.87 47.0793C16.899 47.9759 16.87 48.6991 16.8266 48.6991C16.7831 48.6991 16.3773 48.6267 15.928 48.54C15.3048 48.4098 15.1019 48.3086 15.044 48.0627C14.8266 47.166 14.6382 43.4347 14.7106 41.2509C14.8411 37.2158 15.5512 34.1353 16.899 31.7056C17.5947 30.4618 20.1888 27.8152 21.7251 26.8028C26.1308 23.9103 31.1308 22.4351 37.0728 22.276C42.4205 22.1314 47.0727 23.057 51.2611 25.1107C53.6378 26.2821 55.0436 27.2656 56.7683 28.8999C59.4929 31.532 60.6088 34.2365 60.9856 39.2116C61.0726 40.2963 61.145 40.5711 61.4204 40.8459C61.8552 41.2798 62.4204 41.2653 62.8841 40.8025C63.2465 40.441 63.2465 40.3976 63.1595 39.1104C62.9276 35.9865 62.261 33.1808 61.29 31.2717C59.5219 27.7429 55.5074 24.4165 50.6524 22.4351L49.0872 21.7988L49.1306 20.7575C49.3335 16.4621 46.1596 12.7018 41.2466 11.3857C39.7684 10.9808 36.9133 10.8795 35.4641 11.1543ZM40.6814 13.4683C42.9133 14.0613 45.1017 15.5799 46.0727 17.1852C46.7973 18.4001 47.2756 20.743 46.8408 21.0033C46.7683 21.0467 46.0872 20.9599 45.3481 20.8008C40.6669 19.7885 35.0873 19.8029 30.4496 20.8442C29.3482 21.0901 28.9134 21.1479 28.8265 21.0178C28.754 20.931 28.7395 20.3814 28.783 19.7885C28.9859 16.7369 31.7105 14.177 35.6815 13.3382C36.8554 13.0779 39.4785 13.1502 40.6814 13.4683ZM41.8408 32.8047C47.4495 33.4411 51.6524 35.5237 54.0291 38.8211C55.4929 40.8459 56.2175 43.1454 56.3625 46.1826L56.4494 48.0772L55.6668 49.0172C54.1886 50.825 52.9422 53.2837 52.4205 55.4531C52.1306 56.6534 52.4639 56.451 49.5219 57.1741C47.5364 57.6514 47.0727 57.9117 46.7538 58.765C46.5509 59.3001 46.5365 59.5026 46.6669 59.9509C46.9567 60.9054 47.4495 61.2236 49.377 61.7298C50.3335 61.9757 51.3625 62.236 51.6524 62.3083C52.0871 62.424 52.2031 62.5252 52.2755 62.9157C52.319 63.1616 52.5364 63.9136 52.7393 64.5789L53.1161 65.7793L52.7683 66.5314C52.2176 67.7028 51.0871 69.4962 50.1016 70.7544C48.9567 72.2296 46.0727 74.9919 44.5799 76.0622C42.2466 77.7253 41.5365 77.9134 37.6235 77.9134C33.7395 77.9134 33.0583 77.7109 30.5366 75.8163C25.4207 71.9837 22.0149 66.8206 20.7251 60.9633C20.5077 59.9509 20.4207 58.8807 20.3628 56.5811C20.3048 53.8766 20.2613 53.4283 19.9425 52.4593C18.8555 49.0895 18.7251 45.1268 19.6091 42.2198C21.3483 36.5795 26.5801 33.282 34.8119 32.6456C36.5365 32.5155 39.8988 32.5878 41.8408 32.8047ZM16.3193 50.8829C16.8555 51.042 17.3193 51.2589 17.3483 51.3457C17.3773 51.4469 17.5512 52.0688 17.7541 52.7486C18.0874 53.8333 18.1309 54.2961 18.1744 56.7836L18.2178 59.5749L17.4208 59.517C14.899 59.329 13.2324 56.8993 13.2034 53.356C13.1889 51.794 13.4353 51.0998 14.1164 50.7961C14.7686 50.5069 15.2034 50.5358 16.3193 50.8829Z" fill="#177B63"/>
<path d="M25.4496 42.4655C24.696 42.6535 23.667 43.2031 23.1453 43.7093C22.5366 44.2733 22.4641 44.8807 22.9714 45.3435C23.4206 45.7629 24.0293 45.7485 24.6235 45.2857C25.3916 44.7072 26.0293 44.5047 27.1163 44.5047C28.0293 44.5047 28.1452 44.4758 28.4206 44.1287C28.8119 43.6225 28.7974 43.3043 28.3771 42.8126C28.0583 42.451 27.9279 42.4076 26.9713 42.3787C26.3771 42.3643 25.696 42.4076 25.4496 42.4655Z" fill="#177B63"/>
<path d="M47.3482 42.5092C46.6525 42.9141 46.5221 43.5216 47.0003 44.129C47.2757 44.4761 47.3916 44.505 48.3047 44.505C49.3916 44.505 50.0293 44.7075 50.7974 45.286C51.4496 45.7777 52.0873 45.7777 52.4786 45.286C52.7829 44.8955 52.8554 44.5629 52.6959 44.1579C52.5365 43.753 51.2032 42.8852 50.3047 42.6104C49.3337 42.3067 47.7974 42.2489 47.3482 42.5092Z" fill="#177B63"/>
<path d="M25.9712 51.4904C25.4205 51.7652 25.1451 52.3437 25.3625 52.8065C25.5799 53.2983 26.0292 53.5586 27.1306 53.8478C28.3045 54.1371 29.4929 54.0359 30.5509 53.5586C31.3915 53.1681 31.6378 52.7342 31.3915 52.04C31.1596 51.3892 30.6379 51.259 29.6669 51.5917C28.6089 51.9532 28.2031 51.9532 27.1741 51.5917C26.7104 51.4326 26.348 51.3024 26.3335 51.3024C26.3335 51.3024 26.1741 51.3892 25.9712 51.4904Z" fill="#177B63"/>
<path d="M44.5945 51.4471C44.1017 51.6352 43.9278 51.9678 43.9713 52.5608C44.0147 53.0669 44.0727 53.1393 44.7829 53.5008C45.8263 54.0215 47.1017 54.1516 48.3046 53.8479C49.406 53.5587 49.8553 53.2983 50.0437 52.8066C50.2176 52.3294 49.9422 51.7364 49.435 51.4905C49.1162 51.3314 48.9277 51.3604 48.2466 51.5918C47.2176 51.9533 46.8118 51.9533 45.7539 51.5918C45.2901 51.4327 44.8988 51.3025 44.8988 51.317C44.8843 51.317 44.7539 51.3748 44.5945 51.4471Z" fill="#177B63"/>
<path d="M37.0438 54.0649C36.8119 54.3253 36.7684 54.6434 36.7249 56.4657C36.696 57.6227 36.7104 58.7797 36.7684 59.0545C36.9423 60.0524 37.8844 60.4574 38.551 59.8355C38.8554 59.5462 38.8699 59.4305 38.8699 56.8707C38.8699 54.2819 38.8554 54.2096 38.551 53.9926C38.0872 53.66 37.3771 53.7034 37.0438 54.0649Z" fill="#177B63"/>
<path d="M33.7828 65.7791C33.232 65.9816 32.9567 66.6902 33.232 67.1964C33.5074 67.6737 33.8987 67.8617 35.2755 68.1365C37.6668 68.6282 41.6088 68.2232 42.3189 67.4278C42.7247 66.9505 42.7247 66.6034 42.3044 66.1262C41.9131 65.6634 41.6088 65.6345 40.145 65.9526C38.4494 66.3287 35.8697 66.213 34.377 65.7212C34.261 65.6778 33.9857 65.7068 33.7828 65.7791Z" fill="#177B63"/>
<path d="M66.2177 47.0361C60.4641 48.1353 56.2033 52.9513 55.8699 58.7797C55.5221 64.7961 59.4641 70.1183 65.4641 71.7381C67.0727 72.172 69.8843 72.1575 71.551 71.7092C77.6958 70.0605 81.7683 64.2321 81.0436 58.1289C80.5509 54.036 78.348 50.6373 74.8263 48.5547C72.406 47.1229 68.9713 46.5155 66.2177 47.0361ZM71.1162 49.3357C72.3191 49.6538 74.1596 50.5939 75.0872 51.346C76.5799 52.5897 77.8263 54.3831 78.4205 56.162C78.7828 57.2322 79.0581 59.3871 78.9277 60.0669C78.8408 60.5007 78.7828 60.573 78.5219 60.5007C78.3625 60.4573 77.2466 60.2838 76.0437 60.1102C74.8553 59.9512 73.6669 59.7776 73.4205 59.7487C73.0292 59.6908 72.9423 59.6041 72.8698 59.1991C72.7394 58.5194 71.6669 56.4802 70.551 54.817C69.2321 52.8356 68.9278 52.5753 68.1307 52.7922C67.464 52.9658 65.0003 56.7405 64.2902 58.6495C63.8699 59.7776 63.9423 59.7342 62.2757 59.9078C61.4351 59.9945 59.2467 60.3272 58.3772 60.5007L57.9569 60.5875L58.0438 59.0979C58.1453 57.319 58.4061 56.2198 59.0873 54.8459C60.609 51.7943 63.58 49.6394 67.0582 49.0753C67.8409 48.9596 70.2321 49.1043 71.1162 49.3357ZM70.3336 58.7363C70.6379 59.3727 70.8988 60.0813 70.8988 60.2983C70.8988 61.7301 69.2901 62.9738 67.9278 62.5978C66.7974 62.2941 66.1162 61.4119 66.1162 60.2838C66.1162 59.6619 66.8554 58.0855 67.9133 56.4512L68.464 55.5979L69.1162 56.5959C69.4785 57.1454 70.0292 58.1144 70.3336 58.7363ZM64.5075 62.511C65.5655 64.4924 68.2611 65.3891 70.3336 64.4345C71.2176 64.0151 72.1017 63.2052 72.5075 62.3953C72.7683 61.9036 72.8408 61.8602 73.2611 61.9181C73.522 61.9615 74.0872 62.0338 74.522 62.0772C75.435 62.1784 77.9857 62.5689 78.2611 62.6557C78.5219 62.7424 78.0292 63.9573 77.2756 65.1287C75.8698 67.2692 73.464 68.9613 70.7539 69.6844C69.7539 69.9592 67.0872 69.9158 65.9713 69.6121C64.638 69.265 62.8554 68.3539 61.7974 67.4861C60.4206 66.3436 58.7974 64.0151 58.6815 63.0028C58.6525 62.699 58.7395 62.6557 59.667 62.4821C60.5511 62.3086 63.3191 61.9181 63.9423 61.8747C64.0583 61.8747 64.3191 62.1495 64.5075 62.511Z" fill="#177B63"/>
</svg>
