<svg width="32" height="32" viewBox="0 0 32 32" fill="none" xmlns="http://www.w3.org/2000/svg">
<g clip-path="url(#clip0_10_322)">
<path d="M11.4666 21.8667C10.3023 22.9399 8.768 23.5212 7.18486 23.489C5.60171 23.4568 4.09237 22.8136 2.97268 21.6939C1.853 20.5742 1.20975 19.0649 1.17754 17.4817C1.14533 15.8986 1.72667 14.3643 2.79989 13.2L13.1999 2.80001C14.3642 1.72679 15.8984 1.14546 17.4816 1.17766C19.0647 1.20987 20.5741 1.85312 21.6938 2.9728C22.8134 4.09249 23.4567 5.60183 23.4889 7.18498C23.5211 8.76812 22.9398 10.3024 21.8666 11.4667M7.99855 7.99868L13.6652 13.6653" stroke="#17617B" stroke-width="1.5" stroke-linecap="round" stroke-linejoin="round"/>
<path d="M23 20V26M20 23H26M31 21C31.0045 23.3287 30.2141 25.5891 28.7594 27.4075C27.3047 29.2258 25.2729 30.4932 23 31C20.7272 30.4932 18.6954 29.2258 17.2407 27.4075C15.786 25.5891 14.9955 23.3287 15 21V18C15 17.4696 15.2107 16.9609 15.5858 16.5858C15.9609 16.2107 16.4696 16 17 16H29C29.5305 16 30.0392 16.2107 30.4142 16.5858C30.7893 16.9609 31 17.4696 31 18V21Z" stroke="#17617B" stroke-width="1.5" stroke-linecap="round" stroke-linejoin="round"/>
</g>
<defs>
<clipPath id="clip0_10_322">
<rect width="32" height="32" fill="white"/>
</clipPath>
</defs>
</svg>
